<?xml version="1.0" encoding="UTF-8"?>
<svg xmlns="http://www.w3.org/2000/svg" viewBox="-180 -180 360 380">
  
  
  <g transform="translate(0, -70)">
    <path d="M0.00,-82.00L71.01,-41.00L71.01,41.00L0.00,82.00L-71.01,41.00L-71.01,-41.00Z" fill="#E0A82E" stroke="#141210" stroke-width="5"></path>
    
    <g transform="scale(1.15)">
      <ellipse cx="-22" cy="-6" rx="20" ry="11" fill="#F5EFE0" stroke="#141210" stroke-width="2.4" opacity="0.85"></ellipse>
      <ellipse cx="22" cy="-6" rx="20" ry="11" fill="#F5EFE0" stroke="#141210" stroke-width="2.4" opacity="0.85"></ellipse>
      <ellipse cx="0" cy="0" rx="14" ry="26" fill="#E0A82E" stroke="#141210" stroke-width="2.4"></ellipse>
      <rect x="-13" y="-10" width="26" height="5" fill="#141210"></rect>
      <rect x="-13" y="-1" width="26" height="5" fill="#141210"></rect>
      <rect x="-13" y="8" width="26" height="5" fill="#141210"></rect>
      <circle cx="0" cy="-22" r="6.5" fill="#141210"></circle>
      <path d="M -3 -27 Q -7 -33 -10 -34" fill="none" stroke="#141210" stroke-width="1.6" stroke-linecap="round"></path>
      <path d="M 3 -27 Q 7 -33 10 -34" fill="none" stroke="#141210" stroke-width="1.6" stroke-linecap="round"></path>
      <circle cx="-10" cy="-34" r="1.6" fill="#141210"></circle>
      <circle cx="10" cy="-34" r="1.6" fill="#141210"></circle>
    </g>
    <g transform="translate(-25, 46)">
      <path d="M 0 0 Q 6.25 -2.5 12.5 0 T 25 0 T 37.5 0 T 50 0" fill="none" stroke="#2E66E0" stroke-width="2.2" stroke-linecap="round"></path><path d="M 0 5 Q 6.25 2.5 12.5 5 T 25 5 T 37.5 5 T 50 5" fill="none" stroke="#2E66E0" stroke-width="2.2" stroke-linecap="round"></path>
    </g></g>
  <text x="0" y="80" text-anchor="middle" class="wm" font-size="46" fill="#141210" letter-spacing="0.5">Leine-Honig</text>
  <line x1="-60" y1="100" x2="60" y2="100" stroke="#141210" stroke-width="1" opacity="0.35"></line>
  <text x="0" y="120" text-anchor="middle" class="sub" font-size="11" fill="#141210" letter-spacing="5">NIEDERSACHSEN</text>
  <text x="0" y="140" text-anchor="middle" class="sub" font-size="10" fill="#141210" letter-spacing="4" opacity="0.7">EST · 2026</text>
</svg>