<svg viewBox="0 110 490 130" width="490" height="130" xmlns="http://www.w3.org/2000/svg" role="img">
 <title>Leine-Honig Logo</title>
 <defs>
  <linearGradient y2="100%" x2="100%" y1="0%" x1="0%" id="hgV">
   <stop stop-color="#F0B627" offset="0%"/>
   <stop stop-color="#C4850F" offset="100%"/>
  </linearGradient>
  <linearGradient y2="100%" x2="100%" y1="0%" x1="0%" id="hiV">
   <stop stop-color="#F5D060" offset="0%"/>
   <stop stop-color="#E8A817" offset="100%"/>
  </linearGradient>
  <linearGradient y2="0%" x2="100%" y1="0%" x1="0%" id="flV">
   <stop stop-opacity="0.3" stop-color="#5B8FA8" offset="0%"/>
   <stop stop-color="#6A9FB8" offset="50%"/>
   <stop stop-opacity="0.3" stop-color="#5B8FA8" offset="100%"/>
  </linearGradient>
 </defs>
 <g>
  <g id="svg_1">
   <polygon stroke-width="1.5" stroke="#B07008" fill="url(#hgV)" points="46.538445979356766,126.53851318359375 86.53848031163216,149.53851318359375 86.53848031163216,195.53851318359375 46.538445979356766,218.53851318359375 6.538459807634354,195.53851318359375 6.538459807634354,149.53851318359375 "/>
   <polygon opacity="0.45" stroke-width="0.6" stroke="#C4850F" fill="url(#hiV)" points="46.538445979356766,138.53851318359375 74.53848031163216,154.53851318359375 74.53848031163216,190.53851318359375 46.538445979356766,206.53851318359375 18.53846123814583,190.53851318359375 18.53846123814583,154.53851318359375 "/>
   <g>
    <ellipse fill="#3A2E1A" ry="8.5" rx="14" cy="172.53846" cx="46.53846"/>
    <rect fill="#E8A817" rx="1.2" height="2.5" width="16" y="169.53846" x="38.53846"/>
    <rect fill="#E8A817" rx="1" height="2" width="12" y="174.03846" x="40.53846"/>
    <circle fill="#4A3A24" r="5.5" cy="172.03846" cx="31.53846"/>
    <circle fill="#F5C842" r="1.4" cy="170.03846" cx="30.03846"/>
    <circle fill="#F5C842" r="1.4" cy="170.03846" cx="33.03846"/>
    <path stroke-linecap="round" stroke="#4A3A24" fill="none" d="m29.53846,166.53846q-3,-8 2,-9.5"/>
    <path stroke-linecap="round" stroke="#4A3A24" fill="none" d="m32.53846,166.53846q3,-8 -1,-9.5"/>
    <circle fill="#D4941A" r="1.2" cy="156.53846" cx="31.53846"/>
    <ellipse transform="rotate(-15 43.5384 161.539)" opacity="0.35" fill="#6A9FB8" ry="5.5" rx="10" cy="161.53846" cx="43.53846"/>
    <ellipse transform="rotate(-5 51.5384 163.039)" opacity="0.25" fill="#6A9FB8" ry="4.5" rx="8.5" cy="163.03846" cx="51.53846"/>
    <path stroke-linecap="round" stroke-width="1.3" stroke="#4A3A24" fill="none" d="m59.53846,172.53846l6,0.5"/>
   </g>
  </g>
  <text letter-spacing="2" font-weight="700" font-size="42" font-family="'Georgia','Palatino Linotype','Times New Roman',serif" y="168">
   <tspan fill="#3A2E1A" x="107.46154">LEINE</tspan><tspan fill="#3A2E1A">-</tspan><tspan fill="#D4941A">HONIG</tspan>
  </text>
  <path stroke-linecap="round" stroke-width="1.8" stroke="url(#flV)" fill="none" d="m104.46154,188c40,-8 90,10 170,0s100,-10 140,0c16,3 26,2 32,0"/>
  <path opacity="0.4" stroke-linecap="round" stroke="url(#flV)" fill="none" d="m106.96151,194c39,-8 79,9 169,0s97,-10 137,0c16,3 25,2 30,0"/>
  <text stroke-width="0" x="103.38025" font-weight="400" letter-spacing="4" fill="#7A6A4F" font-size="11" font-family="'Georgia','Palatino Linotype','Times New Roman',serif" y="218">EHRLICHER HONIG · REGION HANNOVER</text>
 </g>
</svg>
