<?xml version="1.0" standalone="no"?>
<!DOCTYPE svg PUBLIC "-//W3C//DTD SVG 20010904//EN"
 "http://www.w3.org/TR/2001/REC-SVG-20010904/DTD/svg10.dtd">
<svg version="1.0" xmlns="http://www.w3.org/2000/svg"
 width="2816.000000pt" height="1536.000000pt" viewBox="0 0 2816.000000 1536.000000"
 preserveAspectRatio="xMidYMid meet">

<g transform="translate(0.000000,1536.000000) scale(0.100000,-0.100000)"
fill="#000000" stroke="none">
<path d="M15979 14986 c-99 -35 -132 -87 -159 -249 -39 -230 -71 -377 -115
-532 -24 -88 -53 -191 -63 -230 l-19 -69 -6 74 c-8 106 -30 170 -77 222 -70
80 -121 90 -557 114 -321 17 -373 13 -449 -31 -95 -56 -135 -151 -136 -325 -1
-124 9 -162 58 -227 59 -77 119 -87 604 -104 392 -13 378 -15 468 66 l51 46
-35 -103 c-94 -278 -109 -401 -64 -507 55 -126 239 -221 431 -221 99 0 146 14
192 58 52 49 76 104 102 233 20 101 76 347 80 356 1 2 48 -8 106 -21 72 -16
104 -28 103 -37 -1 -8 -25 -106 -54 -219 -46 -181 -51 -213 -46 -274 12 -157
94 -243 291 -306 86 -28 248 -32 306 -7 51 21 106 73 121 113 6 19 15 34 18
34 3 0 12 -23 19 -52 18 -69 73 -171 126 -234 84 -97 273 -208 440 -256 64
-18 104 -23 200 -22 133 0 202 15 294 65 30 16 56 27 58 25 3 -2 0 -30 -6 -62
-16 -87 -13 -128 13 -186 40 -87 109 -150 231 -211 125 -62 239 -74 310 -33
46 27 81 79 162 242 71 141 273 466 250 401 -4 -10 -47 -84 -96 -165 -169
-281 -195 -350 -189 -502 3 -88 7 -104 41 -173 44 -88 95 -138 203 -198 85
-47 195 -73 272 -66 59 6 61 4 81 -78 29 -119 134 -237 266 -300 41 -19 84
-35 95 -35 28 0 26 -6 -23 -59 -23 -27 -55 -74 -71 -107 -38 -77 -48 -223 -22
-324 63 -244 342 -501 629 -579 131 -36 306 -27 426 22 157 63 268 157 487
412 312 364 367 424 435 480 133 110 149 127 180 191 30 60 31 70 26 139 -12
168 -125 301 -314 374 -72 28 -80 34 -92 68 -25 70 -82 143 -164 208 -141 113
-278 154 -448 135 -106 -12 -190 -38 -276 -86 -34 -19 -64 -34 -68 -34 -4 0
19 28 49 62 83 91 108 148 107 246 l0 80 47 4 c96 10 211 88 266 183 61 103
72 267 26 388 -29 78 -113 167 -193 207 -127 62 -242 60 -368 -6 -115 -61
-174 -164 -186 -323 l-6 -88 -69 -6 c-90 -8 -119 -29 -168 -125 -21 -43 -53
-100 -72 -129 -40 -63 -221 -293 -226 -288 -2 2 20 40 49 85 60 94 121 231
138 308 25 121 7 299 -43 409 -70 151 -338 311 -504 301 -42 -3 -44 -2 -56 33
-19 55 -53 97 -117 144 -85 62 -198 107 -286 113 -64 4 -79 1 -128 -23 -31
-15 -62 -37 -70 -48 -7 -12 -33 -74 -56 -137 -23 -63 -46 -119 -51 -124 -4 -6
-8 28 -8 75 0 106 -35 249 -83 346 -88 174 -289 316 -536 379 -274 70 -553
-19 -722 -231 -29 -36 -54 -63 -56 -61 -2 2 2 16 8 32 6 16 24 79 40 139 15
61 47 180 69 265 23 85 52 198 66 250 44 166 22 284 -67 364 -128 115 -403
158 -532 83 -67 -40 -89 -91 -143 -337 -25 -118 -49 -218 -53 -222 -6 -6 -169
33 -189 46 -5 3 -1 31 10 63 71 215 88 369 55 484 -39 132 -218 220 -445 219
-48 -1 -103 -7 -123 -14z m245 -117 c77 -14 161 -54 182 -87 29 -44 20 -102
-56 -375 -39 -142 -70 -260 -68 -261 8 -6 483 -114 487 -110 7 7 100 397 112
472 7 41 21 87 33 105 l22 32 114 0 c166 -1 254 -35 286 -111 12 -29 11 -45
-6 -132 -11 -55 -27 -119 -36 -143 -23 -67 -119 -407 -159 -566 -56 -224 -102
-445 -126 -608 -14 -94 -28 -157 -38 -169 -14 -16 -27 -18 -116 -13 -125 6
-207 33 -271 90 l-47 41 6 75 c3 42 13 101 21 131 46 161 106 402 106 427 l0
28 -193 48 c-105 26 -202 49 -215 52 -13 2 -32 7 -41 10 -10 3 -23 0 -28 -7
-16 -19 -93 -342 -133 -554 -7 -34 -15 -65 -19 -70 -51 -71 -365 -20 -421 69
-30 49 -9 167 80 445 87 276 238 892 265 1087 8 60 27 92 57 98 45 9 146 7
202 -4z m-1249 -684 c415 -16 447 -21 479 -84 23 -43 21 -135 -4 -186 -28 -57
-63 -75 -149 -75 -150 0 -653 31 -688 43 -53 18 -75 53 -76 123 -1 102 32 163
99 184 16 5 67 7 114 5 47 -3 148 -7 225 -10z m3016 -389 c88 -19 209 -69 290
-121 261 -167 331 -471 182 -789 -92 -194 -234 -327 -399 -371 -143 -39 -301
-13 -484 77 -232 115 -331 284 -316 540 15 268 176 528 384 620 134 59 219 70
343 44z m1079 -511 c88 -30 151 -66 179 -101 30 -38 30 -144 0 -186 -12 -16
-19 -31 -16 -34 3 -3 38 7 79 22 138 50 264 34 384 -51 114 -81 170 -170 180
-287 10 -106 -35 -211 -211 -493 -138 -220 -146 -246 -95 -305 35 -41 37 -58
10 -109 -56 -112 -175 -130 -320 -49 -105 59 -180 156 -180 234 0 74 58 194
210 434 121 191 142 259 100 327 -22 37 -50 54 -104 64 -87 16 -142 -22 -235
-161 -53 -78 -88 -138 -200 -340 -110 -200 -102 -193 -198 -165 -92 27 -208
108 -239 167 -32 62 -9 121 121 313 143 210 288 482 335 630 32 101 43 115 88
115 21 0 71 -11 112 -25z m1763 -376 c99 -50 151 -129 151 -229 0 -73 -13
-106 -66 -159 -95 -97 -229 -93 -343 10 -60 55 -74 88 -76 169 -4 178 174 289
334 209z m-479 -454 c93 -16 216 -97 252 -166 20 -40 18 -108 -6 -147 -12 -19
-56 -75 -99 -125 -74 -87 -291 -381 -353 -476 -36 -58 -36 -91 2 -134 17 -19
30 -38 30 -42 0 -4 -16 -34 -35 -65 -29 -48 -44 -62 -80 -76 -117 -44 -302 52
-372 194 -64 131 -20 256 165 470 91 105 274 357 329 451 60 103 87 134 112
127 9 -2 33 -7 55 -11z m862 -669 c153 -76 251 -208 242 -329 -3 -52 -3 -52
32 -32 36 21 87 18 152 -9 111 -46 178 -125 178 -210 0 -41 -1 -43 -137 -161
-38 -33 -104 -101 -148 -151 -44 -49 -157 -178 -251 -285 -352 -400 -459 -473
-689 -472 -174 0 -293 48 -444 176 -144 122 -229 255 -238 369 -7 80 16 129
83 184 42 35 53 39 114 42 63 4 69 2 84 -20 8 -13 22 -57 31 -98 24 -113 84
-191 185 -238 81 -38 156 -41 222 -8 44 21 198 155 198 171 0 3 -32 2 -70 -1
-207 -20 -405 132 -451 345 -21 99 25 275 101 385 57 83 145 181 212 233 145
114 255 155 414 150 94 -2 106 -5 180 -41z"/>
<path d="M17895 13451 c-106 -64 -202 -253 -212 -416 -5 -93 11 -134 67 -173
46 -31 70 -35 121 -22 85 23 190 166 233 319 22 77 21 187 -3 231 -39 75 -137
104 -206 61z m85 -217 c0 -8 -10 -45 -21 -82 -31 -98 -113 -212 -135 -189 -21
21 71 240 118 279 22 19 38 16 38 -8z"/>
<path d="M21017 11425 c-20 -8 -47 -21 -59 -29 -50 -36 -135 -126 -175 -189
-78 -119 -67 -214 30 -257 62 -29 104 -25 185 15 83 42 185 145 226 228 79
158 -41 293 -207 232z m63 -215 c0 -25 -144 -150 -174 -150 -13 0 52 71 108
118 52 43 66 50 66 32z"/>
<path d="M13685 14691 c-77 -23 -147 -56 -180 -87 -14 -13 -28 -24 -31 -24 -3
0 -20 11 -37 24 -125 94 -390 64 -527 -61 -46 -40 -70 -105 -71 -192 l-2 -53
-58 65 c-66 73 -119 106 -229 145 -64 22 -91 26 -190 25 -224 -1 -384 -51
-527 -165 -95 -75 -158 -153 -208 -253 -60 -123 -76 -188 -82 -341 l-6 -132
-33 20 -33 19 26 47 c22 43 24 55 20 132 -7 134 -54 234 -132 284 -136 89
-349 86 -595 -7 -79 -30 -249 -147 -308 -212 -85 -93 -142 -236 -142 -355 0
-82 28 -228 55 -287 15 -34 50 -78 95 -123 l72 -70 -22 -45 c-12 -25 -23 -45
-25 -45 -2 0 -51 93 -110 208 -120 236 -164 300 -258 375 -143 114 -315 129
-501 44 -113 -52 -218 -143 -260 -226 l-24 -46 -93 0 c-90 0 -98 -2 -181 -42
-95 -45 -187 -123 -218 -183 -26 -50 -43 -146 -38 -217 l3 -61 -35 38 c-101
108 -228 103 -407 -16 -93 -62 -145 -116 -179 -189 -20 -43 -24 -65 -24 -157
l0 -108 -46 29 c-143 91 -311 51 -481 -115 -95 -93 -125 -156 -131 -274 -4
-78 -2 -89 25 -140 21 -40 48 -70 101 -110 71 -55 98 -87 188 -225 50 -76 77
-125 72 -129 -2 -2 -25 -16 -51 -31 -59 -34 -106 -93 -138 -176 -19 -50 -41
-81 -101 -144 l-78 -80 -47 54 c-27 30 -70 83 -98 117 -27 35 -77 96 -111 136
-33 40 -138 177 -234 303 -95 127 -189 247 -209 268 -57 61 -103 80 -192 81
-112 0 -201 -45 -313 -156 -112 -113 -139 -169 -144 -299 -3 -60 0 -111 8
-134 9 -27 58 -83 174 -199 90 -88 182 -186 207 -217 39 -50 105 -132 298
-374 31 -38 75 -95 98 -125 23 -30 59 -77 80 -105 21 -27 59 -79 83 -114 99
-146 176 -190 309 -177 116 12 181 55 376 251 94 93 232 229 307 300 179 171
238 265 238 377 l0 38 83 -6 c69 -5 92 -3 147 16 80 27 162 76 231 138 55 49
139 169 161 228 12 34 12 34 78 34 164 1 330 109 414 270 21 39 40 70 43 70 3
0 22 -5 43 -11 32 -10 47 -8 111 16 76 27 206 108 271 168 106 100 111 232 14
401 -55 94 -210 399 -240 469 -14 34 -14 38 0 35 9 -2 32 -42 53 -94 67 -159
199 -407 245 -459 29 -34 69 -63 121 -90 75 -38 82 -40 169 -39 75 1 104 6
161 29 128 51 214 121 280 228 24 38 34 47 50 42 59 -19 174 -16 285 5 242 47
386 118 526 256 86 85 121 145 144 242 7 29 15 52 19 50 3 -2 38 -24 76 -49
184 -119 373 -155 604 -114 182 33 387 149 464 264 l17 25 34 -41 c105 -122
421 -136 587 -26 82 54 99 145 74 378 -21 196 -26 478 -8 496 7 7 16 9 20 5 5
-4 11 -114 14 -244 4 -149 13 -265 22 -313 50 -246 227 -376 473 -348 47 5
107 20 136 32 74 33 161 116 195 185 26 52 28 66 28 172 0 108 -2 119 -30 175
-20 39 -45 71 -74 93 l-43 33 1 102 c2 134 -15 340 -34 424 -9 38 -33 105 -55
149 -45 94 -122 172 -207 211 -114 52 -285 67 -398 34z m325 -148 c94 -43 152
-110 185 -216 24 -74 27 -105 35 -335 5 -139 14 -269 19 -290 11 -40 50 -76
95 -88 34 -8 46 -31 46 -89 0 -113 -68 -186 -198 -214 -154 -33 -274 13 -331
127 -38 76 -40 88 -51 382 -5 140 -15 273 -21 295 -6 21 -26 54 -45 73 -33 33
-38 34 -89 30 -96 -8 -149 -80 -166 -226 -11 -93 -5 -370 12 -541 13 -131 7
-142 -91 -172 -81 -24 -215 -24 -264 1 -73 37 -85 106 -86 488 0 268 -12 387
-51 508 -38 118 -38 148 1 184 70 65 229 91 315 51 63 -29 88 -63 100 -138
l11 -66 42 70 c47 79 90 122 162 158 72 37 114 45 215 41 74 -3 101 -8 155
-33z m-1461 -172 c77 -39 148 -108 181 -176 21 -43 25 -64 25 -150 0 -121 -20
-172 -101 -251 -94 -93 -225 -148 -426 -181 -54 -9 -98 -19 -98 -23 0 -14 109
-110 148 -131 38 -19 53 -21 120 -15 107 8 182 46 252 127 51 59 55 61 93 56
42 -6 80 -35 103 -79 22 -42 18 -141 -7 -190 -54 -106 -211 -208 -374 -244
-116 -26 -271 -24 -360 4 -260 80 -406 296 -422 622 -10 222 61 389 220 518
136 109 278 154 472 148 101 -2 115 -5 174 -35z m-1257 -319 c104 -64 101
-235 -5 -296 -37 -21 -48 -23 -97 -16 -30 5 -72 14 -93 20 -70 21 -169 -5
-192 -51 -21 -39 -19 -62 8 -87 41 -39 75 -45 222 -44 289 3 397 -44 473 -206
24 -50 27 -70 27 -157 0 -87 -3 -107 -26 -155 -94 -201 -411 -361 -688 -348
-83 4 -104 9 -144 32 -26 16 -60 44 -76 64 -34 41 -56 117 -46 163 9 39 70
108 112 126 48 19 72 16 138 -18 71 -38 144 -41 216 -11 42 18 99 71 99 93 0
5 -13 23 -29 41 l-28 32 -154 8 c-277 14 -362 38 -438 125 -62 69 -84 139 -78
244 4 75 9 95 42 158 59 111 182 205 334 255 149 49 183 55 286 53 84 -2 106
-6 137 -25z m1628 -257 c0 -63 -4 -115 -8 -115 -5 0 -19 11 -31 24 l-23 24 21
61 c12 34 21 75 21 91 0 17 5 30 10 30 6 0 10 -45 10 -115z m-2923 -269 c106
-50 170 -136 308 -413 62 -125 125 -239 139 -252 22 -21 31 -23 75 -17 58 8
75 -4 111 -73 58 -114 -4 -234 -165 -319 -43 -23 -62 -27 -135 -27 -92 0 -129
13 -184 64 -24 22 -96 123 -96 135 0 2 -20 46 -44 97 -24 52 -63 134 -85 184
-55 119 -97 183 -133 201 -59 31 -147 -7 -184 -79 -22 -41 -21 -131 1 -196 25
-77 162 -360 234 -485 34 -58 61 -114 61 -125 0 -37 -87 -118 -172 -161 -101
-50 -157 -54 -211 -12 -43 33 -63 67 -162 285 -144 321 -205 426 -327 571 -34
42 -58 79 -58 93 0 100 163 233 286 233 40 0 59 -6 90 -28 21 -16 45 -41 53
-55 8 -15 18 -27 22 -27 3 0 10 25 14 55 12 103 86 217 186 291 115 84 271
109 376 60z m-1333 -687 c27 -13 93 -112 201 -304 86 -151 188 -304 250 -372
41 -47 52 -53 85 -53 21 0 50 4 64 10 22 8 29 5 59 -30 34 -40 57 -97 57 -141
0 -35 -42 -119 -79 -156 -17 -18 -59 -47 -93 -64 -51 -26 -76 -32 -129 -33
-59 -1 -71 3 -126 37 -34 20 -64 37 -67 37 -4 0 -4 -22 0 -49 12 -91 -29 -208
-103 -299 -83 -102 -210 -159 -331 -150 -152 12 -252 94 -397 326 -163 261
-216 330 -307 399 -25 20 -54 51 -64 69 -17 31 -17 34 2 76 27 61 132 169 196
201 96 48 164 33 241 -53 41 -46 59 -73 202 -305 77 -124 144 -212 184 -237
14 -10 44 -18 67 -18 32 0 46 6 71 33 44 46 53 69 53 129 0 40 -8 71 -34 125
-52 107 -190 323 -307 479 -52 70 -39 144 39 222 54 53 115 93 175 113 63 22
60 22 91 8z m301 -151 c28 -32 82 -122 136 -225 133 -258 119 -249 -67 42 -73
115 -137 235 -126 235 6 0 32 -24 57 -52z m-495 -670 c78 -122 81 -128 73
-127 -8 0 -118 165 -129 193 -13 35 6 12 56 -66z m-1755 -174 c20 -9 59 -48
93 -92 33 -43 95 -123 138 -180 43 -56 99 -129 124 -161 103 -134 191 -243
295 -367 60 -72 124 -148 141 -170 l31 -39 125 125 c112 113 129 134 173 225
58 117 90 145 164 145 69 0 127 -34 172 -100 107 -157 76 -235 -186 -469 -77
-69 -200 -188 -274 -264 -151 -155 -194 -186 -276 -194 l-57 -6 -56 60 c-31
33 -93 110 -137 172 -44 62 -125 169 -180 239 -55 69 -130 164 -167 211 -127
161 -313 372 -392 444 -43 40 -85 87 -93 105 -26 63 15 145 119 237 103 90
172 113 243 79z"/>
<path d="M12214 14101 c-70 -32 -117 -114 -130 -229 -5 -50 -4 -63 9 -67 24
-10 201 54 239 85 62 51 71 157 19 204 -29 27 -89 30 -137 7z"/>
<path d="M15105 12802 c-56 -20 -86 -45 -111 -94 -22 -44 -25 -61 -22 -117 5
-83 34 -144 104 -214 55 -55 151 -110 222 -127 33 -8 48 -19 66 -48 38 -60
118 -223 113 -228 -3 -3 -52 15 -109 40 -206 88 -550 146 -774 132 -331 -21
-612 -108 -854 -264 -150 -97 -338 -276 -445 -424 -38 -53 -73 -97 -76 -97 -3
-1 -20 32 -38 72 -78 174 -215 371 -339 489 -126 119 -239 189 -424 263 -31
13 -71 36 -89 53 -79 74 -196 121 -300 122 -122 0 -240 -81 -253 -173 -10 -66
0 -104 43 -155 60 -73 190 -125 288 -116 93 9 122 16 154 39 49 37 74 34 219
-27 30 -13 98 -53 151 -90 185 -130 323 -308 438 -564 23 -51 41 -95 41 -99 0
-3 -12 -32 -27 -64 l-27 -57 -198 -33 c-437 -72 -674 -145 -915 -283 -154 -88
-199 -151 -191 -270 5 -85 34 -141 114 -221 88 -87 175 -145 349 -228 l144
-69 -54 -119 c-61 -136 -167 -458 -189 -574 -15 -75 -18 -81 -86 -155 -85 -92
-221 -289 -260 -375 -33 -74 -87 -288 -94 -372 -2 -33 -5 -62 -5 -63 -1 -2
-20 20 -43 50 -208 266 -610 682 -873 904 -519 438 -1033 715 -1520 820 -115
25 -151 28 -310 29 -199 0 -279 -14 -433 -76 -244 -97 -441 -308 -556 -597
-138 -343 -141 -830 -9 -1342 40 -157 142 -436 218 -597 150 -318 391 -662
625 -893 75 -74 285 -261 345 -307 89 -68 347 -234 440 -284 55 -29 101 -53
103 -55 2 -1 -12 -33 -32 -71 -40 -81 -66 -172 -66 -236 0 -168 86 -320 243
-430 31 -22 57 -42 57 -44 0 -10 -33 -121 -47 -161 -17 -45 -41 -62 -88 -62
-13 0 -60 -11 -103 -25 -99 -31 -158 -81 -201 -167 -27 -52 -31 -72 -31 -137
0 -42 6 -99 14 -126 l13 -51 -33 -38 c-19 -22 -43 -64 -55 -95 -40 -106 -14
-277 53 -349 l22 -22 -20 -53 c-29 -80 -26 -188 8 -252 47 -90 121 -150 222
-179 l39 -11 37 -151 c45 -181 78 -284 140 -429 135 -315 289 -573 533 -888
155 -201 239 -297 378 -433 239 -232 411 -358 560 -408 154 -52 239 -61 554
-61 269 1 301 3 448 28 359 62 644 140 921 253 160 65 394 187 481 249 42 30
78 55 81 55 2 0 39 -28 82 -62 257 -205 627 -394 945 -484 271 -76 445 -98
767 -99 228 0 285 4 410 23 146 23 275 53 405 92 39 12 87 26 107 33 34 10 40
8 92 -26 31 -21 228 -166 439 -325 474 -356 487 -365 492 -360 3 2 -11 87 -29
189 -19 101 -46 249 -61 329 -14 80 -46 246 -70 370 -66 336 -65 317 -15 364
107 101 244 266 344 416 31 47 61 92 67 101 29 42 194 372 216 434 88 241 156
568 173 837 22 343 -38 738 -172 1128 -52 152 -195 441 -303 613 -48 76 -86
139 -84 141 2 1 53 13 114 25 103 21 324 79 515 135 258 75 615 232 845 372
61 36 127 76 148 87 43 24 262 186 358 265 236 196 572 584 689 797 18 33 39
67 46 75 19 23 158 304 197 400 19 47 44 117 57 155 12 39 28 84 35 100 26 59
81 300 111 485 21 133 30 464 15 587 -22 178 -57 303 -133 478 -105 241 -327
438 -588 522 -112 37 -134 41 -263 53 -348 31 -831 -104 -1262 -353 -85 -49
-379 -244 -455 -301 -30 -23 -89 -68 -131 -99 -42 -31 -147 -119 -235 -194
-390 -338 -735 -714 -1048 -1143 -118 -161 -123 -166 -101 -115 72 167 154
459 175 625 26 203 23 532 -6 676 l-6 31 119 7 c65 4 169 16 231 27 186 32
282 81 323 166 18 37 21 57 17 123 -8 133 -67 222 -297 448 -176 173 -248 233
-412 345 -69 48 -132 93 -139 102 -7 9 -16 66 -21 142 -29 428 -122 723 -314
998 -118 169 -231 285 -377 388 -32 23 -58 46 -58 53 0 29 -55 198 -96 296
-43 102 -87 180 -125 223 -12 14 -21 48 -27 100 -17 149 -85 255 -208 326 -55
31 -138 46 -179 31z m-155 -807 c272 -52 533 -150 589 -221 38 -48 76 -368 66
-564 -3 -74 -9 -152 -12 -172 l-5 -37 -127 45 c-354 126 -798 233 -1153 279
-197 25 -489 38 -715 31 -117 -4 -213 -3 -213 1 1 17 29 45 39 38 6 -3 11 1
11 10 0 44 220 260 355 350 209 139 380 205 635 246 140 23 397 20 530 -6z
m993 -524 c130 -145 235 -313 307 -494 26 -66 90 -307 90 -344 0 -6 -67 28
-148 75 -81 48 -214 118 -295 156 -129 61 -148 73 -143 90 15 63 28 317 25
488 l-4 196 50 -46 c28 -25 81 -80 118 -121z m-2224 -205 c-4 -4 -100 -15
-131 -16 -20 0 -25 -30 -5 -30 8 -1 7 -4 -3 -13 -8 -7 -15 -19 -15 -27 0 -8
-6 -14 -12 -12 -7 1 -13 -5 -13 -13 0 -8 -7 -15 -15 -15 -8 0 -15 5 -15 10 0
6 5 10 12 10 6 0 8 3 4 7 -4 4 -18 -6 -32 -22 -21 -24 -27 -27 -34 -15 -7 10
-10 11 -10 3 0 -7 -12 -13 -26 -13 -14 0 -23 4 -19 10 3 6 2 10 -3 10 -11 0
-25 -30 -18 -37 3 -3 30 -5 60 -5 30 -1 53 -5 50 -9 -3 -5 -28 -7 -57 -5 -29
2 -56 0 -62 -4 -5 -5 -21 -10 -35 -12 -23 -3 -26 2 -46 82 -25 95 -24 96 46
105 25 4 52 8 60 9 22 5 324 7 319 2z m38 -2 c-3 -3 -12 -4 -19 -1 -8 3 -5 6
6 6 11 1 17 -2 13 -5z m150 0 c-3 -3 -12 -4 -19 -1 -8 3 -5 6 6 6 11 1 17 -2
13 -5z m71 -1 c-10 -2 -28 -2 -40 0 -13 2 -5 4 17 4 22 1 32 -1 23 -4z m120
-10 c-16 -2 -40 -2 -55 0 -16 2 -3 4 27 4 30 0 43 -2 28 -4z m105 -10 c-7 -2
-21 -2 -30 0 -10 3 -4 5 12 5 17 0 24 -2 18 -5z m95 -10 c-10 -2 -26 -2 -35 0
-10 3 -2 5 17 5 19 0 27 -2 18 -5z m49 -9 c-3 -3 -12 -4 -19 -1 -8 3 -5 6 6 6
11 1 17 -2 13 -5z m40 0 c-3 -3 -12 -4 -19 -1 -8 3 -5 6 6 6 11 1 17 -2 13 -5z
m243 -39 c287 -58 714 -176 744 -205 5 -5 -9 -3 -30 4 -231 73 -401 122 -459
132 -16 2 -43 9 -60 14 -34 10 -291 64 -375 78 -35 6 -44 10 -25 11 17 0 109
-15 205 -34z m283 -99 c31 -4 49 -46 20 -46 -13 0 -13 2 -2 17 10 12 11 15 1
9 -7 -4 -20 -2 -28 5 -10 8 -18 9 -22 3 -14 -20 -50 -5 -37 15 3 6 16 9 29 5
12 -3 30 -6 39 -8z m-1266 -2 c-3 -3 -12 -4 -19 -1 -8 3 -5 6 6 6 11 1 17 -2
13 -5z m100 0 c-3 -3 -12 -4 -19 -1 -8 3 -5 6 6 6 11 1 17 -2 13 -5z m990 -16
c-3 -8 -6 -5 -6 6 -1 11 2 17 5 13 3 -3 4 -12 1 -19z m-707 -3 l115 -14 -100
5 c-55 3 -125 9 -155 13 -99 15 11 11 140 -4z m875 -5 c3 -5 1 -10 -4 -10 -6
0 -11 5 -11 10 0 6 2 10 4 10 3 0 8 -4 11 -10z m62 -12 c-3 -8 -6 -5 -6 6 -1
11 2 17 5 13 3 -3 4 -12 1 -19z m-287 -32 c0 -12 -5 -7 -19 24 -11 24 -11 24
3 6 9 -11 16 -24 16 -30z m30 38 c0 -8 -19 -13 -24 -6 -3 5 1 9 9 9 8 0 15 -2
15 -3z m-527 -11 c-7 -2 -19 -2 -25 0 -7 3 -2 5 12 5 14 0 19 -2 13 -5z m314
1 c-3 -3 -12 -4 -19 -1 -8 3 -5 6 6 6 11 1 17 -2 13 -5z m-220 -10 c-3 -3 -12
-4 -19 -1 -8 3 -5 6 6 6 11 1 17 -2 13 -5z m558 -13 c-8 -13 -45 -15 -45 -2 0
5 9 7 20 4 12 -3 20 0 20 8 0 7 3 10 6 6 3 -3 3 -10 -1 -16z m-482 2 c-7 -2
-21 -2 -30 0 -10 3 -4 5 12 5 17 0 24 -2 18 -5z m121 -5 c-3 -5 -1 -8 5 -8 5
0 11 6 14 13 3 8 12 5 27 -11 12 -13 25 -20 29 -14 8 12 55 37 48 25 -3 -5 -2
-15 4 -23 6 -11 9 -12 9 -2 0 8 5 10 12 6 7 -5 9 -2 5 9 -4 12 -2 14 11 10 9
-3 23 -11 30 -16 9 -7 17 -5 26 8 9 12 18 15 27 9 8 -5 23 -8 34 -7 11 2 14 0
8 -3 -7 -3 -13 -11 -13 -18 0 -7 -6 -13 -14 -13 -8 0 -15 3 -14 6 2 17 -3 31
-11 31 -5 0 -8 -7 -7 -16 1 -19 -32 -28 -50 -13 -8 6 -17 5 -27 -5 -12 -12
-26 -14 -71 -6 -31 5 -61 12 -68 16 -6 4 -24 8 -39 9 -71 4 -79 5 -79 13 0 4
24 7 54 7 30 0 52 -3 50 -7z m496 2 c0 -5 -2 -10 -4 -10 -3 0 -8 5 -11 10 -3
6 -1 10 4 10 6 0 11 -4 11 -10z m-165 -30 c11 -5 14 -9 7 -9 -27 -2 9 -40 48
-52 77 -23 31 -20 -91 7 -132 29 -167 43 -100 41 22 -1 41 -5 41 -9 0 -4 8 -7
18 -7 9 1 27 -2 40 -6 18 -6 22 -4 22 14 0 12 -4 20 -9 16 -5 -3 -12 -1 -16 5
-7 12 12 12 40 0z m-756 -44 c441 -53 891 -154 1321 -296 247 -82 398 -145
695 -290 445 -218 959 -619 1121 -875 15 -24 5 -18 -46 26 -80 69 -285 204
-444 293 -222 123 -449 221 -929 400 -775 289 -1686 480 -2517 527 -228 13
-697 7 -825 -11 -107 -15 -305 -56 -385 -80 -35 -11 -66 -18 -68 -15 -7 7 77
55 157 90 248 109 740 225 1056 249 130 10 737 -3 864 -18z m1437 -12 c18 -14
18 -14 -6 -3 -31 14 -36 19 -24 19 6 0 19 -7 30 -16z m69 -24 c3 -6 -1 -7 -9
-4 -18 7 -21 14 -7 14 6 0 13 -4 16 -10z m-618 -6 c-3 -3 -12 -4 -19 -1 -8 3
-5 6 6 6 11 1 17 -2 13 -5z m103 -26 c10 -6 3 -7 -20 -2 -54 10 -83 25 -35 18
22 -4 47 -11 55 -16z m77 -24 c-3 -3 -12 -4 -19 -1 -8 3 -5 6 6 6 11 1 17 -2
13 -5z m53 -14 c18 -12 2 -12 -25 0 -13 6 -15 9 -5 9 8 0 22 -4 30 -9z m610
-16 c0 -2 -7 -4 -15 -4 -8 0 -15 4 -15 10 0 5 7 7 15 4 8 -4 15 -8 15 -10z
m-563 0 c-3 -3 -12 -4 -19 -1 -8 3 -5 6 6 6 11 1 17 -2 13 -5z m125 -35 c57
-17 111 -31 121 -32 9 -1 17 -5 17 -10 0 -5 8 -3 17 4 14 12 16 12 9 0 -6 -9
-5 -12 5 -9 8 3 13 11 12 17 -2 6 2 11 7 11 6 0 10 -13 10 -29 l0 -30 -142 48
c-163 55 -176 59 -166 60 4 1 54 -13 110 -30z m-1807 -219 c144 -70 256 -237
311 -460 14 -58 27 -111 29 -118 3 -7 33 16 72 56 38 38 102 91 143 117 205
132 497 225 665 212 97 -8 304 -63 615 -164 254 -82 267 -88 307 -129 87 -89
191 -318 240 -524 31 -132 42 -387 23 -537 -21 -170 -69 -348 -136 -505 -19
-44 -32 -83 -30 -86 3 -2 42 -17 87 -33 171 -60 267 -155 326 -322 39 -109 44
-294 12 -425 -44 -182 -143 -348 -303 -507 -332 -329 -824 -519 -1491 -575
-312 -26 -709 6 -950 75 -66 19 -88 32 -129 70 -62 60 -153 119 -224 145 -31
12 -121 37 -201 56 -158 38 -156 37 -346 173 -161 115 -251 195 -355 317 -183
212 -270 378 -342 649 -30 112 -30 336 0 445 57 211 126 332 282 494 55 58
100 107 100 109 0 2 11 60 25 128 88 431 307 875 548 1110 65 63 192 156 277
202 100 55 157 68 280 62 89 -5 114 -10 165 -35z m-4325 -669 c528 -110 1179
-510 1760 -1082 226 -222 596 -649 687 -791 50 -79 89 -153 113 -213 62 -155
232 -423 348 -546 39 -42 72 -79 72 -82 0 -3 -27 -32 -59 -64 -32 -33 -73 -87
-90 -121 -36 -71 -19 -64 -228 -92 -220 -30 -454 -83 -728 -165 -288 -87 -484
-165 -741 -295 -181 -91 -382 -218 -498 -313 -38 -32 -73 -57 -77 -57 -5 0
-26 10 -47 23 -20 13 -66 38 -102 57 -105 53 -253 149 -373 239 -373 281 -661
617 -879 1026 -214 400 -311 726 -363 1214 -13 129 -13 160 0 300 36 360 127
586 306 757 134 127 256 187 459 227 64 13 338 -1 440 -22z m10662 -191 c111
-24 251 -91 336 -161 34 -29 90 -88 123 -132 161 -214 234 -467 232 -807 -2
-296 -41 -498 -177 -901 -46 -139 -169 -404 -241 -521 -32 -51 -67 -109 -78
-128 -75 -126 -249 -339 -412 -502 -508 -509 -1259 -880 -2052 -1013 l-151
-26 -49 53 c-122 134 -175 187 -263 266 -118 106 -273 222 -368 276 -78 44
-77 44 -87 149 l-7 68 39 -17 c74 -32 73 -32 73 28 0 134 -47 374 -99 510 -51
131 -145 282 -233 374 l-39 40 34 45 c18 24 68 94 109 155 130 190 246 342
427 561 278 337 617 680 876 889 614 494 1107 740 1640 818 62 9 281 -5 367
-24z m-3547 -2570 c27 -27 47 -50 44 -50 -3 0 -27 23 -54 50 -27 28 -47 50
-44 50 3 0 27 -22 54 -50z m-3938 -117 l77 -58 -123 -9 c-78 -5 -126 -5 -132
1 -7 7 8 30 41 67 29 31 54 56 56 56 3 0 39 -26 81 -57z m4004 40 c13 -16 12
-17 -3 -4 -17 13 -22 21 -14 21 2 0 10 -8 17 -17z m-3745 -244 c280 -19 452
-77 569 -193 73 -71 98 -140 99 -266 1 -89 -1 -100 -33 -165 -25 -51 -58 -93
-120 -156 -97 -97 -258 -225 -269 -214 -4 4 -1 10 6 12 6 3 12 9 12 14 0 6 -5
7 -12 3 -7 -5 -8 -3 -4 5 5 7 14 10 22 7 7 -3 16 -1 19 4 3 4 -1 11 -7 13 -7
3 -2 6 12 7 14 1 19 4 12 7 -6 2 -10 8 -7 13 3 5 -4 11 -15 15 -11 4 -18 10
-15 15 9 14 -27 21 -44 8 -14 -12 -15 -11 -1 7 8 11 23 31 35 44 11 13 -20 -8
-70 -48 -135 -108 -365 -236 -513 -285 -39 -13 -52 -22 -52 -37 0 -11 -5 -17
-10 -14 -6 4 -7 11 -4 17 4 6 1 9 -6 6 -8 -2 -16 -10 -18 -18 -3 -7 0 -10 7
-6 7 5 11 -2 11 -18 0 -20 4 -24 25 -22 13 2 22 -1 19 -6 -3 -5 -12 -7 -20 -4
-7 3 -16 1 -19 -4 -4 -6 0 -10 7 -10 9 0 9 -3 -2 -10 -12 -7 -10 -9 7 -7 12 0
20 4 17 8 -2 4 3 9 11 13 8 3 15 1 15 -5 0 -6 5 -7 10 -4 7 4 7 13 0 26 -13
23 -4 25 16 4 18 -18 44 -13 117 23 29 13 57 25 62 26 25 4 75 29 75 39 0 6 3
8 6 4 6 -6 124 54 223 112 29 18 55 30 57 28 14 -14 -400 -224 -576 -292 -217
-85 -330 -120 -330 -101 0 6 8 12 18 13 25 2 134 44 129 50 -3 2 -15 0 -26 -7
-18 -9 -21 -8 -21 10 0 12 5 18 10 15 6 -3 10 -2 10 4 0 15 -23 26 -28 13 -2
-6 -10 -8 -19 -5 -11 4 -14 2 -11 -8 5 -16 -20 -45 -30 -34 -4 4 -1 10 6 12 6
3 12 12 12 20 0 14 -3 14 -24 0 -23 -15 -24 -15 -30 9 -5 18 -12 24 -24 20 -9
-3 -100 -28 -202 -56 -102 -28 -201 -55 -220 -62 -33 -10 -33 -11 -12 -19 14
-5 20 -13 16 -20 -4 -7 -3 -9 3 -6 13 8 55 -27 45 -37 -4 -5 17 -5 47 -2 82 9
49 -8 -64 -33 -55 -12 -110 -24 -122 -27 -29 -8 -30 11 -3 98 23 76 63 118
165 172 81 44 106 65 147 124 16 23 37 42 47 42 26 0 261 81 411 142 349 142
607 309 726 471 41 55 44 63 44 124 0 96 -28 137 -128 187 -120 61 -368 93
-581 75 -144 -11 -247 -26 -270 -39 -9 -4 -62 -13 -116 -20 -141 -15 -311 -46
-445 -80 -208 -53 -513 -147 -640 -197 -69 -28 -143 -56 -165 -63 -119 -39
-410 -215 -508 -308 -80 -77 -108 -127 -114 -206 -5 -62 -5 -64 33 -105 42
-48 89 -74 159 -92 43 -11 46 -14 41 -38 -27 -117 -18 -207 30 -286 35 -60 39
-83 7 -46 -9 12 -21 21 -25 21 -3 0 -19 5 -35 11 -22 8 -24 12 -13 20 13 8 13
10 0 19 -11 7 -16 5 -18 -9 -2 -11 -9 -22 -17 -25 -9 -3 -12 0 -9 8 8 22 -11
27 -24 6 -10 -16 -7 -19 21 -26 18 -4 35 -8 39 -8 3 -1 10 -4 14 -8 16 -16
-53 -7 -134 18 -239 72 -341 168 -372 346 -25 142 21 248 172 396 105 103 236
196 383 273 465 243 639 307 1265 464 130 33 304 61 495 79 278 28 403 31 631
15z m-599 -175 c-3 -3 -12 -4 -19 -1 -8 3 -5 6 6 6 11 1 17 -2 13 -5z m226
-11 c-7 -2 -19 -2 -25 0 -7 3 -2 5 12 5 14 0 19 -2 13 -5z m50 0 c-7 -2 -19
-2 -25 0 -7 3 -2 5 12 5 14 0 19 -2 13 -5z m201 1 c25 -4 46 -11 46 -16 0 -5
-4 -7 -8 -4 -5 3 -55 8 -113 11 -57 4 -106 9 -108 11 -7 6 131 5 183 -2z m89
-21 c-7 -2 -19 -2 -25 0 -7 3 -2 5 12 5 14 0 19 -2 13 -5z m236 -84 c33 -20
33 -21 29 -80 -2 -32 -9 -64 -15 -70 -8 -8 -40 -5 -111 10 -56 12 -119 21
-141 21 -23 0 -41 4 -41 8 0 9 128 8 137 -2 13 -12 25 -6 19 10 -6 15 -4 15
16 2 21 -14 25 -14 38 0 10 12 11 17 2 20 -7 2 -12 8 -12 14 0 6 9 3 20 -7 13
-12 20 -14 20 -5 0 10 3 10 15 0 8 -6 22 -10 32 -7 14 4 13 5 -4 6 -13 0 -23
3 -23 5 0 14 14 36 22 36 5 0 6 -6 2 -12 -5 -10 -4 -10 6 -1 16 14 6 29 -34
54 -17 10 -26 19 -21 19 6 0 25 -9 44 -21z m-291 -104 c3 -3 -42 -5 -99 -5
-126 0 -334 -15 -482 -35 -59 -8 -113 -15 -120 -14 -29 1 36 18 94 24 35 4 66
8 69 10 8 5 149 18 203 18 26 1 47 3 47 6 0 7 281 3 288 -4z m3001 -140 c7
-38 6 -47 -8 -54 -22 -11 -41 -3 -41 17 0 10 3 13 8 7 14 -19 28 -14 30 11 1
14 -2 22 -8 19 -5 -3 -8 7 -5 25 2 16 -1 32 -6 35 -5 4 -9 14 -9 23 1 29 30
-33 39 -83z m-3722 79 c-3 -3 -12 -4 -19 -1 -8 3 -5 6 6 6 11 1 17 -2 13 -5z
m-152 -29 c-115 -28 -135 -30 -135 -13 0 6 3 9 6 6 3 -4 20 -2 37 3 18 5 55
12 82 15 28 4 52 8 54 10 2 2 16 4 30 3 14 0 -19 -11 -74 -24z m-865 -5 c-8
-5 -18 -6 -22 -4 -4 3 -8 1 -8 -4 0 -8 -42 -32 -56 -32 -16 0 14 25 49 40 40
18 66 18 37 0z m4635 -19 c-6 -5 -25 10 -25 20 0 5 6 4 14 -3 8 -7 12 -15 11
-17z m-2746 0 c29 -5 56 -12 61 -17 9 -9 -60 -69 -150 -131 -140 -95 -430
-227 -724 -328 l-138 -48 -65 32 c-63 33 -66 33 -171 28 -84 -3 -134 -12 -232
-41 -170 -49 -294 -70 -383 -62 -296 24 -403 18 -506 -30 -31 -14 -69 -30 -86
-35 l-30 -8 30 25 c101 85 325 202 575 302 320 127 599 208 915 266 164 30
257 41 485 60 66 6 359 -4 419 -13z m-1252 -27 c-3 -3 -12 -4 -19 -1 -8 3 -5
6 6 6 11 1 17 -2 13 -5z m2013 -24 c0 -4 -10 -30 -22 -57 -11 -26 -22 -54 -24
-61 -3 -16 -12 -27 -18 -21 -3 2 4 22 15 44 10 22 22 57 25 77 4 21 10 35 15
32 5 -3 9 -9 9 -14z m-2135 -10 c-38 -10 -166 -53 -284 -94 -118 -42 -216 -76
-220 -76 -9 0 33 28 43 28 5 0 12 4 15 9 3 5 56 24 116 42 61 19 160 50 220
70 61 21 126 38 145 38 25 1 15 -4 -35 -17z m2206 2 c-7 -2 -18 1 -23 6 -8 8
-4 9 13 5 13 -4 18 -8 10 -11z m1546 12 c-3 -3 -12 -4 -19 -1 -8 3 -5 6 6 6
11 1 17 -2 13 -5z m-4127 -14 c12 -8 11 -10 -7 -10 -13 0 -23 5 -23 10 0 13
11 13 30 0z m4035 -10 c-27 -12 -43 -12 -25 0 8 5 22 9 30 9 10 0 8 -3 -5 -9z
m-1330 -10 c27 -7 27 -8 5 -8 -14 0 -36 4 -50 8 -20 6 -21 8 -5 8 11 0 34 -4
50 -8z m1262 -6 c-3 -3 -12 -4 -19 -1 -8 3 -5 6 6 6 11 1 17 -2 13 -5z m-57
-8 c0 -3 -4 -8 -10 -11 -5 -3 -10 -1 -10 4 0 6 5 11 10 11 6 0 10 -2 10 -4z
m710 -15 c0 -5 -11 -11 -25 -13 -29 -6 -30 -5 -9 16 15 16 34 14 34 -3z m-743
3 c-3 -3 -12 -4 -19 -1 -8 3 -5 6 6 6 11 1 17 -2 13 -5z m-690 -49 c4 -5 3 -7
-2 -3 -4 4 -14 0 -22 -10 -12 -15 -12 -15 -7 0 4 12 -1 18 -23 21 -20 3 -17 4
10 4 21 -1 41 -6 44 -12z m363 11 c0 -3 -4 -8 -10 -11 -5 -3 -10 -1 -10 4 0 6
5 11 10 11 6 0 10 -2 10 -4z m-174 -13 c-7 -7 -77 -5 -85 2 -2 3 17 5 44 5 27
0 45 -3 41 -7z m47 -38 c-3 -9 -8 -14 -10 -11 -3 3 -2 9 2 15 9 16 15 13 8 -4z
m1191 -44 c-7 -8 -30 25 -26 37 3 9 8 6 16 -10 7 -12 11 -25 10 -27z m-9 -48
c-16 -128 -15 -125 -41 -108 -14 9 -30 13 -36 9 -7 -4 -8 -3 -4 4 9 15 36 16
36 2 0 -5 5 -10 11 -10 6 0 9 7 5 15 -3 8 -2 15 2 15 4 0 8 15 9 33 3 39 12
77 18 77 3 0 3 -17 0 -37z m-4890 -13 c-3 -5 -12 -10 -18 -10 -7 0 -6 4 3 10
19 12 23 12 15 0z m4620 0 c3 -6 -1 -7 -9 -4 -18 7 -21 14 -7 14 6 0 13 -4 16
-10z m-1825 -77 c0 -4 -11 4 -25 17 -14 13 -25 27 -25 31 0 5 11 -3 25 -17 14
-14 25 -28 25 -31z m-3251 30 c-8 -10 -18 -21 -24 -25 -5 -4 -7 -8 -2 -8 7 0
-14 -22 -54 -55 l-24 -20 15 20 c17 25 93 105 98 105 3 0 -2 -8 -9 -17z m6515
-13 c151 -96 441 -343 452 -384 14 -59 -107 -432 -215 -660 -118 -248 -294
-489 -536 -732 -239 -240 -380 -352 -646 -517 -124 -76 -337 -186 -424 -218
-33 -12 -64 -25 -70 -29 -18 -13 -249 -88 -366 -119 -135 -36 -244 -56 -397
-74 l-114 -14 9 121 c4 67 8 234 7 371 -1 210 -4 270 -23 375 l-22 125 40 34
c53 46 201 93 391 126 304 53 439 95 654 202 328 164 574 384 745 668 l39 65
7 -100 c6 -85 9 -99 21 -89 33 27 200 293 254 404 69 139 119 299 127 403 3
39 9 72 12 72 4 0 28 -14 55 -30z m-6159 11 c-19 -16 -215 -129 -209 -120 8
13 74 55 149 96 62 33 76 39 60 24z m2760 -108 c45 -43 136 -127 203 -186 67
-59 122 -112 122 -116 0 -13 -126 -141 -138 -141 -7 0 15 27 48 59 44 44 58
64 53 77 -5 13 -3 15 8 9 12 -8 12 -6 0 9 -11 13 -16 14 -22 4 -8 -13 -10 -10
-13 22 0 8 -7 14 -13 13 -7 -2 -13 4 -13 12 0 8 -5 15 -10 15 -6 0 -22 12 -35
26 -14 15 -29 23 -36 18 -7 -4 -9 -3 -6 4 8 12 -214 231 -235 232 -10 0 -11
20 -1 20 4 0 43 -35 88 -77z m200 39 c11 -10 31 -31 45 -47 19 -22 12 -18 -26
13 -28 23 -57 49 -65 58 -13 16 -12 16 6 6 11 -7 29 -20 40 -30z m1819 2 c3
-8 2 -12 -4 -9 -6 3 -10 10 -10 16 0 14 7 11 14 -7z m-2134 -19 c0 -8 -6 -15
-13 -15 -8 0 -40 -20 -73 -45 -87 -65 -89 -55 -3 14 80 64 89 69 89 46z m2295
-15 c3 -5 1 -10 -4 -10 -6 0 -11 5 -11 10 0 6 2 10 4 10 3 0 8 -4 11 -10z
m-5200 -63 c-21 -18 -60 -51 -86 -74 -25 -24 -49 -40 -52 -36 -4 3 5 14 21 24
15 11 54 41 87 69 33 27 62 49 65 49 3 0 -13 -14 -35 -32z m5020 -27 c-22 -67
-29 -60 -9 9 9 29 18 50 21 47 3 -2 -3 -28 -12 -56z m-1594 -67 c66 -64 126
-129 133 -144 7 -14 -49 37 -125 114 -77 78 -139 142 -139 144 0 12 26 -11
131 -114z m979 102 c11 -13 10 -14 -4 -9 -9 3 -16 10 -16 15 0 13 6 11 20 -6z
m800 -2 c0 -3 -7 -3 -15 1 -8 3 -15 0 -15 -6 0 -6 -3 -9 -6 -5 -11 10 6 26 21
20 8 -3 15 -7 15 -10z m-490 -17 c0 -3 -4 -8 -10 -11 -5 -3 -10 -1 -10 4 0 6
5 11 10 11 6 0 10 -2 10 -4z m-3382 -32 c13 -9 26 -22 29 -30 9 -25 -55 -82
-136 -121 -187 -90 -245 -214 -207 -449 9 -56 16 -133 16 -172 0 -61 -3 -74
-26 -101 -34 -40 -88 -43 -132 -6 -34 29 -47 58 -62 139 -15 86 -43 138 -89
164 -21 12 -49 22 -62 22 -40 -1 -105 -36 -132 -72 -49 -64 -60 -112 -61 -253
-1 -109 4 -150 28 -254 23 -98 28 -138 23 -192 -10 -123 -53 -185 -134 -195
-58 -8 -102 22 -138 91 -40 79 -44 158 -14 366 36 255 17 336 -122 510 -99
124 -119 163 -119 230 0 103 34 160 123 205 77 40 134 46 302 34 83 -6 168
-13 190 -15 76 -8 279 32 540 105 76 21 143 19 183 -6z m1373 -17 c-6 -8 -35
-29 -63 -46 -63 -39 -51 -23 18 24 56 38 61 40 45 22z m1673 -29 c-3 -4 -9 -8
-15 -8 -5 0 -9 4 -9 8 0 5 7 9 15 9 8 0 12 -4 9 -9z m431 3 c3 -5 2 -12 -3
-15 -5 -3 -9 1 -9 9 0 17 3 19 12 6z m175 -36 c0 -8 -4 -15 -10 -15 -5 0 -7 7
-4 15 4 8 8 15 10 15 2 0 4 -7 4 -15z m-2414 -28 c-10 -7 -29 -20 -43 -31 -24
-18 -194 -104 -181 -91 8 8 231 134 238 134 3 0 -3 -6 -14 -12z m1752 -13 c0
-19 -3 -22 -9 -13 -8 12 -11 11 -19 -1 -5 -8 -10 -11 -10 -6 0 7 27 41 36 45
1 1 2 -11 2 -25z m801 -11 c-18 -18 -33 -32 -34 -30 -1 1 -5 16 -8 32 -6 30
-5 31 34 31 l40 1 -32 -34z m-1009 17 c0 -5 -2 -10 -4 -10 -3 0 -8 5 -11 10
-3 6 -1 10 4 10 6 0 11 -4 11 -10z m315 1 c3 -5 2 -12 -3 -15 -5 -3 -9 1 -9 9
0 17 3 19 12 6z m545 4 c0 -10 -43 -85 -49 -85 -20 1 -28 16 -15 28 8 7 14 9
14 5 0 -4 8 7 16 25 14 27 34 44 34 27z m-779 -32 c13 -16 12 -17 -3 -4 -10 7
-18 15 -18 17 0 8 8 3 21 -13z m-2161 3 c0 -3 -4 -8 -10 -11 -5 -3 -10 -1 -10
4 0 6 5 11 10 11 6 0 10 -2 10 -4z m2465 -6 c3 -5 1 -10 -4 -10 -6 0 -11 5
-11 10 0 6 2 10 4 10 3 0 8 -4 11 -10z m-215 -14 c0 -2 -7 -7 -16 -10 -8 -3
-12 -2 -9 4 6 10 25 14 25 6z m540 -6 c0 -5 -2 -10 -4 -10 -3 0 -8 5 -11 10
-3 6 -1 10 4 10 6 0 11 -4 11 -10z m-1230 -20 c0 -5 -4 -10 -9 -10 -6 0 -13 5
-16 10 -3 6 1 10 9 10 9 0 16 -4 16 -10z m478 -15 c-3 -3 -9 2 -12 12 -6 14
-5 15 5 6 7 -7 10 -15 7 -18z m220 0 c-3 -3 -9 2 -12 12 -6 14 -5 15 5 6 7 -7
10 -15 7 -18z m456 -11 c3 -8 2 -12 -4 -9 -6 3 -10 10 -10 16 0 14 7 11 14 -7z
m140 4 c-3 -4 2 -8 10 -8 9 0 16 -4 16 -10 0 -15 -16 -12 -30 5 -7 9 -19 14
-27 11 -8 -3 -11 -2 -8 3 3 6 14 9 25 8 10 -1 16 -5 14 -9z m-684 -18 c8 -5
11 -10 5 -10 -5 0 -17 5 -25 10 -8 5 -10 10 -5 10 6 0 17 -5 25 -10z m160 0
c0 -5 -2 -10 -4 -10 -3 0 -8 5 -11 10 -3 6 -1 10 4 10 6 0 11 -4 11 -10z
m-2725 -20 c3 -5 1 -10 -4 -10 -6 0 -11 5 -11 10 0 6 2 10 4 10 3 0 8 -4 11
-10z m3255 -18 c0 -8 -1 -13 -3 -11 -1 2 -9 12 -16 22 -12 15 -12 17 3 11 9
-3 16 -13 16 -22z m-2614 -7 c-8 -8 -19 -15 -25 -15 -6 0 -19 -4 -29 -10 -28
-16 -192 -90 -247 -112 -86 -34 -497 -156 -582 -173 -18 -4 -33 -11 -33 -16 0
-6 4 -8 9 -4 5 3 12 1 16 -5 3 -5 11 -10 16 -10 6 0 7 5 3 12 -5 7 -3 8 5 3
10 -5 7 -13 -9 -29 -16 -15 -24 -17 -27 -8 -6 17 -23 15 -23 -3 0 -11 -8 -13
-32 -8 -30 6 -32 5 -19 -10 9 -12 10 -17 2 -17 -7 0 -9 -5 -6 -10 4 -6 11 -7
17 -4 7 4 8 2 4 -5 -6 -9 -11 -9 -22 -1 -7 7 -13 15 -12 18 2 19 -3 32 -13 32
-5 0 -7 -4 -4 -10 3 -5 1 -10 -4 -10 -6 0 -11 5 -11 10 0 6 -5 10 -11 10 -5 0
-7 -4 -4 -10 3 -5 -1 -10 -9 -10 -9 0 -16 5 -16 11 0 5 -6 7 -12 4 -7 -4 -4 1
7 11 18 15 18 16 2 10 -10 -3 -32 -6 -48 -6 -28 0 -29 -2 -29 -45 0 -33 4 -45
15 -45 8 0 15 -5 15 -11 0 -6 9 -8 21 -4 12 4 37 7 57 7 36 0 36 0 12 13 -25
14 -25 14 10 13 19 0 43 -5 53 -10 9 -5 17 -5 17 -1 0 4 20 9 45 10 24 1 54 7
65 13 11 6 39 13 62 16 88 10 117 17 274 64 229 70 441 151 437 168 -1 5 8 7
20 5 13 -2 72 22 151 62 117 60 131 64 150 52 12 -8 85 -77 164 -154 78 -76
142 -137 142 -135 0 2 -5 13 -11 24 -10 19 -9 20 17 15 16 -3 44 1 61 8 135
56 -170 -131 -382 -235 -364 -179 -728 -305 -1145 -399 -225 -50 -522 -97
-676 -108 l-91 -6 -6 84 c-4 46 -16 122 -28 169 -15 60 -22 116 -22 190 0 158
20 190 118 190 25 0 45 -40 45 -91 0 -41 37 -129 68 -163 42 -45 98 -65 157
-57 62 9 88 23 118 64 42 57 52 96 52 203 l0 101 130 28 c192 41 304 70 460
121 211 69 462 165 541 207 37 21 50 21 30 2z m1784 -5 c-6 -11 -13 -20 -16
-20 -2 0 0 9 6 20 6 11 13 20 16 20 2 0 0 -9 -6 -20z m-2325 -9 c-3 -6 -11
-11 -16 -11 -5 0 -4 6 3 14 14 16 24 13 13 -3z m1754 -98 l52 -73 -31 -32
c-94 -97 -95 -254 -5 -389 35 -50 35 -53 18 -70 -33 -31 -146 -67 -292 -93
-186 -33 -250 -65 -291 -146 -30 -60 -33 -95 -12 -143 42 -96 170 -150 302
-128 30 5 56 8 57 7 2 -2 -19 -17 -46 -34 -53 -35 -96 -85 -112 -131 -9 -24
-6 -39 11 -77 28 -65 46 -83 106 -110 123 -55 285 -53 457 5 102 35 117 42
185 93 30 22 55 38 56 36 6 -7 26 -238 32 -368 11 -219 -47 -768 -89 -845 -16
-29 -165 -157 -294 -251 -334 -245 -850 -491 -1285 -614 -468 -133 -888 -187
-1353 -177 -137 4 -286 11 -330 17 -147 18 -330 52 -351 63 -79 44 -409 528
-548 804 -74 148 -186 460 -225 624 -6 26 -13 54 -17 63 -5 12 0 16 18 16 39
0 123 28 152 51 42 33 59 76 58 151 0 48 -6 81 -21 110 -11 23 -19 42 -18 43
65 38 117 120 117 186 0 50 -25 117 -59 160 l-29 35 35 20 c44 23 78 73 94
138 l12 49 86 -7 c47 -4 114 -9 147 -13 l62 -6 22 -48 c29 -62 84 -114 139
-134 55 -19 87 -19 142 0 69 25 104 58 135 130 16 36 33 65 40 65 32 0 430 53
559 75 521 87 1161 307 1536 527 57 34 124 73 149 86 128 73 383 274 479 378
75 82 55 88 150 -43z m693 103 c8 5 5 1 -6 -9 -17 -16 -18 -20 -5 -28 10 -6
10 -9 1 -9 -7 0 -15 7 -18 15 -4 8 -10 12 -15 9 -13 -8 -11 5 4 20 8 10 14 10
19 3 4 -7 11 -7 20 -1z m78 4 c0 -5 -4 -10 -10 -10 -5 0 -10 5 -10 10 0 6 5
10 10 10 6 0 10 -4 10 -10z m-630 -44 c0 -6 -7 -1 -15 10 -8 10 -15 23 -15 28
0 6 7 1 15 -10 8 -10 15 -23 15 -28z m268 19 c-3 -3 -9 2 -12 12 -6 14 -5 15
5 6 7 -7 10 -15 7 -18z m192 15 c-10 -6 -11 -10 -2 -10 6 0 12 -5 12 -11 0 -8
-5 -8 -15 1 -16 13 -11 30 8 30 7 0 6 -4 -3 -10z m360 -5 c0 -2 -9 -3 -19 -2
-11 0 -18 5 -15 9 4 6 34 0 34 -7z m31 -2 c13 -16 12 -17 -3 -4 -10 7 -18 15
-18 17 0 8 8 3 21 -13z m394 -1 c-3 -3 -11 0 -18 7 -9 10 -8 11 6 5 10 -3 15
-9 12 -12z m-835 -42 c-6 -10 -15 -22 -22 -26 -7 -4 -8 -3 -4 4 4 7 2 12 -3
12 -6 0 -11 5 -11 11 0 8 5 8 15 -1 15 -12 21 -4 16 23 -1 5 3 6 9 2 7 -4 7
-12 0 -25z m393 3 c-4 -10 -9 -11 -19 -2 -18 15 -18 15 5 15 11 0 17 -5 14
-13z m-212 -10 c11 -15 11 -16 0 -6 -7 6 -21 9 -30 6 -14 -4 -14 -3 -1 6 8 6
16 11 16 11 1 0 8 -8 15 -17z m250 0 c13 -16 12 -17 -3 -4 -10 7 -18 15 -18
17 0 8 8 3 21 -13z m-405 -11 c0 -10 -6 -19 -13 -19 -8 0 -9 6 -2 19 5 10 11
18 12 18 2 0 3 -8 3 -18z m-2426 -4 c0 -4 -4 -8 -9 -8 -6 0 -12 4 -15 8 -3 5
1 9 9 9 8 0 15 -4 15 -9z m2830 -20 c0 -5 -7 -3 -15 6 -8 8 -15 18 -15 22 0 3
7 1 15 -6 8 -7 15 -17 15 -22z m-250 -12 c-7 -7 -13 -7 -20 0 -6 6 -3 10 10
10 13 0 16 -4 10 -10z m-493 -54 c36 -53 103 -184 103 -200 0 -6 4 -12 8 -14
5 -1 12 -18 15 -36 10 -50 -9 -29 -28 31 -19 58 -102 220 -116 225 -12 5 -32
42 -22 42 4 0 22 -21 40 -48z m529 13 c-9 -7 -14 -14 -11 -16 2 -3 -4 -5 -15
-6 -18 -2 -18 -1 1 18 11 11 17 25 12 32 -4 7 1 6 11 -2 16 -14 16 -16 2 -26z
m228 21 c-10 -8 -21 -12 -24 -10 -5 6 21 24 34 24 6 0 1 -6 -10 -14z m-2429
-10 c12 -12 12 -15 -2 -21 -10 -3 -14 -3 -10 1 4 4 2 13 -4 21 -15 17 -1 17
16 -1z m50 5 c3 -5 1 -12 -5 -16 -5 -3 -10 1 -10 9 0 18 6 21 15 7z m2262 2
c-4 -3 -1 -13 6 -22 11 -14 10 -14 -5 -2 -16 12 -16 31 -1 31 4 0 3 -3 0 -7z
m267 -8 c-7 -16 -24 -21 -24 -6 0 8 7 13 27 20 1 1 0 -6 -3 -14z m-2627 -17
c-3 -8 -6 -5 -6 6 -1 11 2 17 5 13 3 -3 4 -12 1 -19z m1988 12 c3 -6 -1 -7 -9
-4 -18 7 -21 14 -7 14 6 0 13 -4 16 -10z m320 0 c3 -6 -1 -7 -9 -4 -10 4 -16
1 -16 -7 0 -7 -3 -10 -6 -6 -7 7 4 27 16 27 5 0 12 -4 15 -10z m-2330 -21 c-6
-30 -10 -32 -26 -16 -15 15 -35 12 -60 -9 -13 -12 -16 -12 -16 1 0 8 2 13 4
11 2 -2 21 5 41 15 49 24 62 24 57 -2z m186 -2 c-10 -9 -11 -8 -5 6 3 10 9 15
12 12 3 -3 0 -11 -7 -18z m2312 12 c-6 -6 -10 -17 -9 -23 2 -6 1 -8 -1 -3 -3
4 -10 4 -16 0 -7 -3 -3 3 7 15 11 12 22 22 25 22 3 0 0 -5 -6 -11z m-2346 -21
c-3 -8 -6 -5 -6 6 -1 11 2 17 5 13 3 -3 4 -12 1 -19z m1710 15 c-4 -3 -1 -13
6 -22 11 -14 10 -14 -5 -2 -16 12 -16 31 -1 31 4 0 3 -3 0 -7z m749 -35 c-9
-12 -16 -17 -16 -10 0 14 23 42 29 37 1 -2 -4 -14 -13 -27z m-2492 7 c3 -8 1
-15 -4 -15 -6 0 -10 7 -10 15 0 8 2 15 4 15 2 0 6 -7 10 -15z m2431 -13 c-3
-3 -11 0 -18 7 -9 10 -8 11 6 5 10 -3 15 -9 12 -12z m-180 -23 c4 -6 13 -8 21
-5 9 3 11 0 7 -11 -5 -13 -2 -15 11 -10 10 4 15 3 11 -3 -3 -6 -13 -10 -21
-10 -8 0 -14 -6 -14 -12 -1 -15 -17 9 -22 32 -2 8 -7 18 -13 22 -6 5 -6 8 2 8
6 0 15 -5 18 -11z m99 -1 c-3 -4 -1 -8 5 -8 5 0 12 6 14 13 4 9 6 9 6 0 1 -17
-19 -27 -31 -15 -6 6 -18 8 -27 5 -12 -4 -13 -2 -3 4 16 12 43 13 36 1z m117
-6 c-7 -2 -18 1 -23 6 -8 8 -4 9 13 5 13 -4 18 -8 10 -11z m-66 -2 c3 -5 1
-10 -4 -10 -6 0 -11 5 -11 10 0 6 2 10 4 10 3 0 8 -4 11 -10z m165 -10 c23
-20 23 -21 4 -35 -48 -38 -52 -37 -43 3 5 20 9 40 9 45 0 11 5 9 30 -13z
m-4730 -10 c0 -5 -9 -10 -20 -10 -11 0 -20 5 -20 10 0 6 9 10 20 10 11 0 20
-4 20 -10z m4620 1 c0 -5 -7 -14 -15 -21 -10 -9 -15 -9 -15 -1 0 6 6 11 13 11
8 0 7 4 -3 10 -13 8 -12 10 3 10 9 0 17 -4 17 -9z m-285 -11 c3 -6 -1 -7 -9
-4 -11 4 -16 0 -16 -10 0 -9 -5 -16 -10 -16 -7 0 -7 6 0 20 12 22 25 26 35 10z
m-46 -3 c-2 -1 -11 -8 -21 -15 -12 -10 -18 -10 -24 -1 -4 7 -3 9 4 5 6 -3 13
-2 17 4 3 5 11 10 17 10 6 0 9 -1 7 -3z m185 -37 c-6 -6 -10 -3 -10 10 0 13 4
16 10 10 7 -7 7 -13 0 -20z m85 -2 c14 5 13 2 -3 -23 -36 -58 -86 -100 -74
-63 3 7 -5 20 -16 29 -19 16 -21 16 -34 0 -11 -14 -12 -13 -2 7 9 18 17 21 40
17 22 -4 32 0 40 14 7 13 7 22 0 26 -5 3 -10 1 -10 -6 0 -7 -3 -10 -6 -6 -3 3
-3 11 1 16 4 8 13 7 27 -3 11 -8 28 -12 37 -8z m-2 16 c-3 -3 -12 -4 -19 -1
-8 3 -5 6 6 6 11 1 17 -2 13 -5z m-432 -22 c-3 -3 -11 0 -18 7 -9 10 -8 11 6
5 10 -3 15 -9 12 -12z m315 -3 c0 -5 -4 -9 -8 -9 -5 0 -9 7 -9 15 0 8 4 12 9
9 4 -3 8 -9 8 -15z m-230 1 c0 -5 -5 -10 -11 -10 -5 0 -7 5 -4 10 3 6 8 10 11
10 2 0 4 -4 4 -10z m-2702 -45 c-3 -3 -9 2 -12 12 -6 14 -5 15 5 6 7 -7 10
-15 7 -18z m-1718 -8 c13 -5 13 -6 -1 -6 -8 -1 -24 6 -35 15 -19 15 -19 15 1
6 11 -5 27 -12 35 -15z m1700 3 c0 -5 -2 -10 -4 -10 -3 0 -8 5 -11 10 -3 6 -1
10 4 10 6 0 11 -4 11 -10z m-10 -30 c8 -15 8 -20 -3 -20 -7 0 -13 9 -13 20 0
11 1 20 3 20 1 0 7 -9 13 -20z m-1596 -71 c34 -9 86 -20 115 -24 l54 -7 -7 26
c-6 25 -5 26 36 26 28 0 38 3 29 9 -7 5 -21 7 -30 4 -10 -2 -22 2 -28 9 -9 11
0 12 49 10 l60 -4 26 -56 c33 -73 38 -140 18 -282 -9 -63 -16 -157 -16 -208
l0 -94 -52 6 c-29 3 -89 8 -133 12 -44 3 -87 10 -96 15 -9 5 -28 28 -43 53
-33 56 -94 110 -196 171 -44 27 -80 54 -80 60 0 10 95 255 125 322 l15 33 46
-32 c26 -17 75 -39 108 -49z m-17 75 c-3 -3 -12 -4 -19 -1 -8 3 -5 6 6 6 11 1
17 -2 13 -5z m1653 2 c0 -11 -19 -15 -25 -6 -3 5 1 10 9 10 9 0 16 -2 16 -4z
m-1597 -13 c-7 -2 -19 -2 -25 0 -7 3 -2 5 12 5 14 0 19 -2 13 -5z m1392 -3 c3
-5 1 -10 -4 -10 -6 0 -11 5 -11 10 0 6 2 10 4 10 3 0 8 -4 11 -10z m-1285 -9
c0 -10 -26 -9 -36 2 -4 4 2 7 14 7 12 0 22 -4 22 -9z m1410 5 c0 -3 -4 -8 -10
-11 -5 -3 -10 -1 -10 4 0 6 5 11 10 11 6 0 10 -2 10 -4z m2535 -16 c3 -5 0
-10 -7 -10 -8 -1 -6 -6 6 -15 11 -8 14 -15 7 -15 -7 0 -9 -4 -6 -10 11 -17
-11 -11 -29 9 -9 10 -14 25 -10 35 7 18 29 22 39 6z m505 7 c0 -2 -9 -12 -19
-21 -14 -13 -21 -14 -27 -5 -4 7 -3 10 3 6 6 -4 13 0 17 8 4 13 26 22 26 12z
m-4454 -42 c-1 -26 -12 -33 -18 -13 -4 10 9 35 18 38 1 0 1 -11 0 -25z m4389
-13 c-3 -3 -11 0 -18 7 -9 10 -8 11 6 5 10 -3 15 -9 12 -12z m-339 -83 c4 -6
13 -4 24 6 15 14 18 14 30 0 17 -20 8 -28 -34 -31 -28 -2 -40 4 -77 42 l-44
45 47 -26 c26 -15 51 -31 54 -36z m-36 51 c0 -5 -2 -10 -4 -10 -3 0 -8 5 -11
10 -3 6 -1 10 4 10 6 0 11 -4 11 -10z m308 -18 c7 7 12 8 12 2 0 -10 -62 -44
-80 -44 -6 0 -10 5 -10 10 0 6 3 9 8 9 22 -4 34 3 28 16 -4 12 -2 13 13 6 12
-7 22 -6 29 1z m-88 -48 c0 -2 -7 -4 -15 -4 -8 0 -15 4 -15 10 0 5 7 7 15 4 8
-4 15 -8 15 -10z m-43 -10 c-3 -3 -12 -4 -19 -1 -8 3 -5 6 6 6 11 1 17 -2 13
-5z m913 -204 c-20 -13 -33 -13 -25 0 3 6 14 10 23 10 15 0 15 -2 2 -10z m-65
-26 c-37 -19 -42 -18 -14 5 13 11 28 17 32 14 5 -3 -4 -11 -18 -19z m2595
-414 c60 -256 80 -451 73 -690 -4 -142 -11 -175 -63 -305 -43 -108 -159 -319
-253 -460 -136 -203 -450 -557 -478 -539 -7 4 -9 3 -6 -3 17 -28 -317 -288
-549 -428 -313 -189 -694 -346 -1019 -421 -270 -63 -643 -99 -875 -86 l-126 8
-144 70 c-127 62 -346 185 -360 203 -3 4 -18 15 -35 25 -16 11 -60 42 -97 69
l-68 50 58 61 c32 34 82 94 111 134 51 70 55 73 85 66 45 -10 361 -6 523 6
366 28 751 125 1138 288 50 21 279 137 360 182 159 89 372 240 550 389 465
392 840 921 1021 1441 31 91 61 176 66 190 9 23 12 18 34 -50 13 -41 38 -131
54 -200z m-3756 -1636 c-29 -131 -140 -477 -175 -545 -34 -68 -92 -141 -155
-197 -32 -29 -59 -50 -61 -48 -2 2 21 29 52 60 31 31 55 62 52 69 -2 7 -9 2
-16 -12 l-13 -24 -24 28 c-13 15 -21 32 -18 37 4 6 10 5 15 -3 6 -10 9 -10 9
-2 0 17 -14 23 -29 13 -8 -4 -10 -13 -6 -20 5 -9 4 -11 -3 -6 -7 4 -12 1 -12
-6 0 -9 -3 -9 -10 2 -9 13 -11 13 -20 0 -11 -17 -13 -10 -4 14 5 14 9 14 23 4
14 -12 15 -11 2 5 -12 15 -11 17 2 17 23 0 27 13 11 35 -13 17 -16 18 -24 5
-6 -8 -8 -21 -5 -27 2 -7 -2 -13 -10 -13 -23 0 -26 16 -5 35 11 10 17 22 14
27 -4 6 3 5 15 -1 17 -9 21 -9 21 3 0 7 7 16 15 20 13 5 13 2 -1 -19 -15 -23
-12 -30 10 -26 5 1 6 -5 3 -14 -7 -16 2 -19 18 -7 13 9 18 52 6 52 -5 0 -11
-6 -14 -12 -2 -7 -8 -10 -12 -5 -5 4 0 13 10 21 10 7 15 18 11 24 -4 7 -2 12
3 12 6 0 11 -7 11 -16 0 -8 4 -13 9 -9 5 3 16 -4 23 -14 14 -20 58 -25 58 -8
0 5 -6 7 -13 4 -8 -3 -13 3 -13 14 0 12 4 15 10 9 20 -20 22 -13 29 82 1 15 6
30 11 35 4 4 7 -1 6 -12 -1 -11 -2 -38 -1 -59 1 -39 1 -39 20 -20 10 10 19 21
19 24 0 3 1 8 2 13 1 4 3 10 4 15 1 4 9 23 18 42 27 62 47 138 51 193 1 9 5
17 10 17 4 0 6 4 2 9 -3 5 -1 12 4 15 5 3 12 17 15 32 5 19 1 30 -16 44 -19
15 -21 21 -10 32 11 11 12 10 7 -3 -8 -21 13 -35 28 -20 9 9 9 14 0 19 -7 4
-11 20 -10 34 1 15 -2 26 -8 25 -5 -1 -9 -10 -8 -19 3 -19 -37 -35 -59 -23 -7
3 -5 0 4 -8 10 -8 15 -17 12 -20 -8 -8 -44 25 -38 35 10 16 -3 8 -22 -14 -19
-21 -19 -21 1 -14 11 4 16 4 12 0 -4 -4 -3 -12 2 -18 6 -7 4 -16 -5 -24 -8 -7
-14 -8 -14 -2 0 5 -5 10 -11 10 -6 0 -9 -7 -6 -14 4 -10 1 -13 -9 -9 -21 8
-11 28 15 27 24 -1 28 11 6 20 -15 5 -146 -68 -153 -86 -2 -4 -8 -8 -13 -8 -5
0 -32 -15 -59 -32 -76 -51 -135 -87 -153 -93 -14 -6 -37 -53 -37 -77 0 -5 9
-4 20 2 11 6 20 7 19 3 -3 -19 2 -33 12 -33 5 0 7 4 4 10 -3 6 1 7 9 4 9 -3
16 -2 16 4 0 6 -6 13 -12 15 -8 3 -9 6 -2 6 6 1 20 -11 30 -25 10 -14 26 -33
34 -41 12 -14 12 -15 -5 -9 -13 4 -30 -3 -50 -19 l-30 -25 35 -31 c19 -16 27
-27 17 -23 -13 5 -16 2 -11 -10 3 -9 1 -16 -4 -16 -6 0 -10 8 -8 18 1 9 -8 27
-21 39 -13 12 -23 19 -23 15 0 -4 -10 4 -21 18 -11 14 -18 19 -14 12 3 -7 8
-31 10 -55 2 -23 0 -34 -4 -24 -4 10 -10 18 -14 18 -21 -2 -25 1 -20 19 3 11
9 18 13 15 4 -2 5 7 2 21 -3 19 -17 -4 -62 -110 -92 -216 -157 -317 -265 -414
-44 -38 -53 -51 -40 -56 9 -3 14 -2 10 3 -9 16 16 18 63 6 42 -11 94 -4 112
15 7 7 53 27 64 28 5 0 12 5 16 12 4 6 14 12 22 14 9 1 23 8 32 15 9 7 16 10
16 7 0 -6 12 2 45 32 8 7 15 11 15 8 0 -7 82 43 90 54 7 10 50 32 50 25 0 -7
-180 -124 -260 -168 -68 -37 -334 -157 -347 -156 -5 0 12 10 37 23 25 13 60
31 78 40 18 10 29 22 26 28 -4 5 -16 0 -30 -13 -13 -12 -27 -19 -31 -16 -3 4
-13 1 -21 -6 -13 -10 -15 -9 -9 5 3 10 1 20 -5 24 -6 4 -8 3 -5 -2 3 -6 -4
-16 -16 -24 -20 -12 -21 -12 -8 3 22 27 2 20 -73 -25 -39 -24 -102 -58 -141
-75 -70 -33 -61 -48 10 -19 19 8 35 11 35 7 0 -27 -563 -166 -778 -191 -175
-21 -477 -24 -614 -6 -291 38 -408 107 -755 450 -127 125 -150 152 -119 140
21 -8 180 -34 271 -44 133 -15 583 -13 780 3 399 34 869 142 1255 289 418 160
764 352 1066 594 65 51 119 92 121 90 2 -2 -8 -57 -23 -122z m-101 -101 c-4
-10 -2 -14 4 -10 6 4 13 0 17 -8 3 -8 0 -17 -7 -21 -7 -4 -9 -4 -5 1 4 4 0 13
-9 20 -9 7 -13 17 -9 23 11 18 16 14 9 -5z m-433 -213 c0 -5 -5 -10 -11 -10
-5 0 -7 5 -4 10 3 6 8 10 11 10 2 0 4 -4 4 -10z m105 -98 c-3 -3 -11 0 -18 7
-9 10 -8 11 6 5 10 -3 15 -9 12 -12z m71 -81 c12 10 13 9 8 -4 -7 -20 -34 -30
-35 -14 0 7 -4 3 -9 -8 -8 -19 -9 -19 -9 -1 -1 18 -2 18 -20 2 -20 -18 -30
-12 -26 17 2 9 2 17 0 17 -12 0 -35 -14 -35 -21 0 -4 6 -6 14 -3 11 4 13 0 9
-14 -4 -18 -7 -17 -38 12 -30 29 -31 52 -1 27 11 -9 18 -8 29 4 11 11 18 12
23 4 5 -8 10 -6 17 6 8 16 11 15 34 -9 20 -22 28 -25 39 -15z m-196 -26 c11
-13 10 -14 -4 -9 -9 3 -16 10 -16 15 0 13 6 11 20 -6z m130 -32 c-1 -24 -18
-35 -39 -24 -28 15 -27 6 4 -27 27 -29 31 -42 13 -42 -6 0 -8 3 -5 7 4 4 -5
19 -19 34 -30 31 -26 48 11 41 15 -2 25 0 25 7 0 6 2 11 5 11 3 0 5 -3 5 -7z
m45 -43 c3 -5 -1 -10 -9 -10 -9 0 -16 5 -16 10 0 6 4 10 9 10 6 0 13 -4 16
-10z m-35 -215 c-7 -9 -15 -13 -19 -10 -3 3 1 10 9 15 21 14 24 12 10 -5z
m-650 -345 c0 -5 -5 -10 -11 -10 -5 0 -7 5 -4 10 3 6 8 10 11 10 2 0 4 -4 4
-10z m-30 -14 c0 -6 -93 -37 -97 -32 -2 2 15 11 39 19 47 17 58 19 58 13z"/>
<path d="M13967 11723 c-3 -5 -2 -26 3 -48 l7 -40 17 38 c9 21 14 42 11 47 -7
12 -32 13 -38 3z"/>
<path d="M14045 11621 c-6 -11 9 -23 19 -14 9 9 7 23 -3 23 -6 0 -12 -4 -16
-9z"/>
<path d="M13950 11558 c0 -27 5 -48 10 -48 6 0 10 6 10 14 0 8 2 20 5 28 3 7
-1 22 -9 33 -14 19 -15 17 -16 -27z"/>
<path d="M13850 11556 c0 -20 4 -36 8 -36 12 0 14 58 2 65 -6 4 -10 -8 -10
-29z"/>
<path d="M16039 11037 c-18 -13 -39 -50 -39 -66 0 -18 39 -51 59 -51 29 0 51
27 51 63 -1 56 -35 82 -71 54z m44 -64 c-8 -21 -22 -5 -16 18 4 15 8 17 13 8
5 -7 6 -18 3 -26z"/>
<path d="M16292 10680 c0 -14 2 -19 5 -12 2 6 2 18 0 25 -3 6 -5 1 -5 -13z"/>
<path d="M13546 11223 c-6 -14 -5 -15 5 -6 7 7 10 15 7 18 -3 3 -9 -2 -12 -12z"/>
<path d="M13530 11186 c0 -2 7 -7 16 -10 8 -3 12 -2 9 4 -6 10 -25 14 -25 6z"/>
<path d="M14495 11010 c-3 -5 -1 -10 4 -10 6 0 11 5 11 10 0 6 -2 10 -4 10 -3
0 -8 -4 -11 -10z"/>
<path d="M14568 10993 c7 -3 16 -2 19 1 4 3 -2 6 -13 5 -11 0 -14 -3 -6 -6z"/>
<path d="M15805 10450 c-4 -6 2 -10 12 -10 15 0 16 -2 3 -11 -12 -8 -9 -9 11
-5 19 4 29 1 33 -10 3 -8 10 -12 16 -9 11 7 14 -8 3 -18 -3 -4 -13 2 -20 13
-8 11 -18 18 -23 15 -10 -6 48 -92 77 -116 15 -13 15 -12 4 10 -9 17 -10 26
-2 34 8 8 11 7 11 -3 1 -11 4 -10 15 4 18 23 11 36 -18 35 -21 0 -21 -1 -3 -8
19 -7 19 -8 -2 -13 -28 -8 -35 4 -18 28 13 17 11 20 -17 37 -46 28 -75 38 -82
27z"/>
<path d="M13170 10466 c-72 -20 -119 -46 -170 -96 -65 -63 -113 -160 -80 -160
6 0 41 15 78 34 106 53 174 70 251 61 97 -11 110 -9 137 16 53 50 20 117 -71
145 -57 17 -85 17 -145 0z"/>
<path d="M14840 10212 c-46 -23 -68 -62 -54 -99 12 -35 43 -50 141 -69 130
-25 188 -59 284 -172 55 -64 76 -51 59 38 -29 151 -138 264 -295 306 -66 18
-93 17 -135 -4z"/>
<path d="M13035 10126 c-235 -57 -452 -361 -506 -706 -14 -93 -6 -333 15 -410
8 -30 12 -57 10 -59 -2 -2 -34 -9 -71 -15 -38 -6 -67 -16 -66 -21 1 -6 55 -24
120 -40 147 -38 285 -107 407 -205 48 -38 89 -70 93 -70 8 0 -7 71 -23 101
-31 61 -179 161 -306 208 l-73 27 -22 74 c-32 111 -32 293 1 424 81 319 311
582 507 580 130 -2 241 -113 285 -285 18 -70 23 -228 10 -314 l-9 -60 -9 50
c-24 140 -66 213 -145 251 -44 22 -63 26 -102 21 -46 -6 -121 -34 -121 -47 0
-3 16 -14 35 -23 44 -21 64 -53 71 -113 10 -87 -63 -184 -137 -184 -42 0 -91
49 -105 102 l-10 43 -23 -60 c-40 -106 -54 -199 -49 -325 6 -131 23 -184 79
-237 116 -107 191 -111 321 -15 86 63 153 166 217 332 55 144 71 221 77 385 5
109 3 155 -10 208 -53 226 -164 355 -331 386 -68 13 -65 13 -130 -3z"/>
<path d="M14674 9860 c-84 -27 -171 -86 -262 -177 -136 -136 -219 -322 -243
-539 -16 -151 1 -329 38 -394 10 -18 12 -20 9 -5 -13 50 -26 167 -26 241 0
163 80 388 191 536 118 159 304 253 449 229 144 -24 239 -100 314 -252 65
-131 79 -209 72 -384 -7 -193 -42 -321 -129 -477 -54 -97 -74 -104 -22 -7 126
239 112 573 -31 699 -50 44 -93 60 -156 60 -49 0 -148 -26 -148 -39 0 -4 17
-15 38 -26 90 -48 98 -188 14 -277 -35 -38 -72 -43 -126 -20 -48 22 -76 61
-76 107 0 67 -51 -37 -81 -163 -23 -99 -24 -186 -4 -282 18 -83 36 -123 78
-167 17 -18 27 -36 23 -40 -4 -4 -35 -17 -69 -30 -128 -45 -142 -52 -169 -82
-15 -17 -28 -40 -28 -51 0 -20 1 -20 38 -4 175 78 439 116 642 94 206 -22 270
-24 270 -7 0 9 -34 29 -95 53 -52 22 -95 41 -95 44 0 3 17 28 38 56 120 160
201 412 202 624 0 322 -144 584 -368 671 -81 31 -207 35 -288 9z"/>
<path d="M13283 8702 c-96 -34 -155 -94 -174 -179 -15 -64 6 -132 60 -201 75
-93 230 -153 356 -137 66 8 159 60 163 92 3 23 3 23 -40 6 -26 -10 -76 -16
-128 -17 -74 -1 -93 3 -147 28 -146 67 -198 201 -110 283 42 40 85 53 173 53
89 0 175 -29 264 -90 66 -45 78 -37 40 25 -27 43 -75 79 -158 118 -86 40 -216
49 -299 19z"/>
<path d="M12796 8134 c-8 -20 27 -107 59 -152 15 -20 62 -71 105 -112 64 -62
80 -85 95 -130 25 -79 82 -205 126 -277 107 -177 237 -265 414 -280 122 -10
244 26 370 107 137 90 229 191 360 396 93 146 103 158 122 142 20 -16 43 -63
43 -87 0 -28 21 -37 37 -16 35 49 -4 174 -73 234 -48 42 -107 71 -152 74 -31
2 -37 -1 -40 -20 -2 -17 7 -28 38 -48 23 -14 40 -31 38 -37 -2 -6 -44 -33 -93
-59 -268 -144 -670 -168 -980 -59 -33 11 -105 46 -160 77 -79 45 -121 78 -202
159 -70 70 -103 97 -107 88z m1243 -600 c17 -4 31 -12 31 -19 0 -32 -208 -188
-288 -217 -22 -8 -81 -13 -147 -13 -115 0 -158 12 -225 65 l-25 19 45 46 c25
25 69 57 99 72 51 23 155 46 166 35 2 -3 -9 -21 -26 -40 -48 -54 -22 -62 48
-15 32 22 76 47 98 56 41 16 165 23 224 11z"/>
<path d="M13848 7517 c-21 -5 -38 -12 -38 -16 0 -9 79 -1 85 9 9 15 -9 17 -47
7z"/>
<path d="M13605 7500 c-8 -13 5 -13 25 0 13 8 13 10 -2 10 -9 0 -20 -4 -23
-10z"/>
<path d="M13866 7432 c-3 -3 -6 -12 -6 -21 0 -9 3 -12 8 -6 9 13 42 16 42 4 0
-5 9 -4 20 3 10 7 17 14 15 17 -7 7 -73 10 -79 3z"/>
<path d="M13354 7098 c-3 -5 6 -27 20 -48 19 -28 46 -49 103 -77 70 -35 84
-38 157 -38 69 0 89 4 138 29 61 31 126 90 110 100 -5 3 -36 -4 -68 -15 -128
-45 -283 -33 -402 31 -29 16 -55 24 -58 18z"/>
<path d="M13216 6544 c-4 -11 -11 -12 -23 -5 -17 8 -18 2 -18 -82 0 -52 -6
-109 -14 -130 -15 -44 -92 -149 -159 -219 -51 -53 -54 -74 -4 -26 18 16 36 27
40 23 4 -3 -1 -11 -11 -16 -9 -6 -17 -15 -17 -22 0 -7 4 -6 10 3 7 10 10 11
11 3 3 -28 4 -32 13 -40 5 -5 6 -2 1 6 -5 9 -4 12 3 7 7 -4 12 -13 12 -19 0
-7 12 -14 27 -15 l28 -2 -23 15 c-25 18 -29 32 -8 32 8 0 14 -5 13 -10 -1 -5
6 -11 15 -12 11 -2 15 2 11 13 -5 11 -2 13 8 8 8 -4 1 4 -14 18 -20 18 -23 26
-13 26 9 0 16 -4 16 -9 0 -5 7 -12 16 -15 14 -5 15 -4 4 9 -17 20 -6 19 15 -1
15 -16 19 -14 52 21 36 39 83 127 83 158 0 10 5 28 11 39 8 15 8 19 0 14 -6
-4 -11 -3 -11 3 0 5 5 13 10 16 6 4 8 14 6 23 -3 10 -8 34 -10 54 -8 59 -26
119 -35 113 -5 -2 -8 3 -7 11 1 21 -31 27 -38 8z m-12 -90 c3 -8 2 -12 -4 -9
-6 3 -10 10 -10 16 0 14 7 11 14 -7z m-74 -284 c0 -5 -5 -10 -11 -10 -5 0 -7
5 -4 10 3 6 8 10 11 10 2 0 4 -4 4 -10z m30 -35 c11 -13 10 -14 -4 -9 -9 3
-16 10 -16 15 0 13 6 11 20 -6z m-83 -48 c0 -7 -9 -13 -19 -13 -18 0 -18 1 -2
13 10 7 18 13 19 13 1 0 2 -6 2 -13z"/>
<path d="M12936 6033 c-6 -14 -5 -15 5 -6 7 7 10 15 7 18 -3 3 -9 -2 -12 -12z"/>
<path d="M12055 5565 c-32 -14 -24 -19 10 -6 11 5 25 5 31 0 7 -5 11 -3 11 6
0 18 -13 18 -52 0z"/>
<path d="M11980 5540 c-13 -9 -13 -10 0 -10 8 0 22 5 30 10 13 9 13 10 0 10
-8 0 -22 -5 -30 -10z"/>
<path d="M12205 5540 c-3 -5 -13 -6 -22 -3 -13 5 -15 2 -11 -15 7 -27 5 -27
-18 -4 -17 16 -18 16 -11 -1 4 -10 7 -22 7 -27 0 -5 14 -3 30 3 17 6 28 17 26
23 -2 6 1 17 7 23 6 6 8 11 5 11 -4 0 -9 -4 -13 -10z"/>
<path d="M9825 5500 c11 -52 27 -73 19 -25 -4 22 -11 45 -16 50 -7 7 -8 -2 -3
-25z"/>
<path d="M9873 5485 c0 -8 4 -12 9 -9 5 3 8 -10 6 -30 -1 -19 1 -38 5 -42 4
-4 7 2 7 14 0 29 15 36 18 7 1 -13 -3 -27 -8 -30 -15 -9 10 -54 27 -48 12 5
14 1 8 -18 -3 -13 -3 -19 2 -13 4 6 20 14 36 18 22 5 25 9 15 20 -7 7 -19 13
-27 12 -9 -1 -17 8 -19 19 -2 11 -10 27 -18 36 -8 9 -11 19 -8 22 4 4 -1 9
-10 13 -24 9 -19 23 7 18 12 -3 8 1 -12 10 -40 19 -38 19 -38 1z"/>
<path d="M9970 5450 c0 -6 7 -10 15 -10 8 0 15 2 15 4 0 2 -7 6 -15 10 -8 3
-15 1 -15 -4z"/>
<path d="M9940 5433 c0 -7 5 -15 10 -18 6 -3 10 -15 10 -25 0 -14 5 -18 16
-13 9 3 20 0 26 -8 8 -11 9 -10 4 4 -3 9 -1 17 4 17 9 0 14 -14 11 -32 0 -4 6
-5 14 -1 13 4 13 8 3 21 -7 8 -13 18 -13 21 0 3 -8 5 -17 5 -10 -1 -15 3 -12
7 3 5 -3 9 -13 9 -11 0 -24 5 -31 12 -9 9 -12 9 -12 1z"/>
<path d="M10013 5428 c0 -7 11 -14 24 -14 26 -2 31 11 7 20 -23 9 -31 7 -31
-6z"/>
<path d="M9850 5425 c0 -5 5 -17 10 -25 5 -8 10 -10 10 -5 0 6 -5 17 -10 25
-5 8 -10 11 -10 5z"/>
<path d="M10078 5413 c6 -2 12 -9 12 -14 0 -6 -4 -7 -10 -4 -6 3 -7 -1 -4 -10
4 -8 16 -20 28 -26 19 -9 19 -9 4 4 -11 8 -15 21 -11 35 4 17 1 22 -13 21 -11
0 -14 -3 -6 -6z"/>
<path d="M10147 5392 c-5 -7 -2 -18 6 -27 13 -12 17 -12 31 4 15 16 15 19 2
24 -10 4 -13 1 -9 -9 3 -7 0 -14 -5 -14 -6 0 -12 8 -14 18 -3 12 -6 14 -11 4z"/>
<path d="M9870 5371 c0 -5 7 -15 17 -22 15 -13 15 -12 4 9 -12 23 -21 28 -21
13z"/>
<path d="M11596 5132 c-2 -4 4 -8 14 -8 10 0 16 4 14 8 -3 4 -9 8 -14 8 -5 0
-11 -4 -14 -8z"/>
<path d="M10995 5050 c-3 -5 -1 -10 4 -10 6 0 11 5 11 10 0 6 -2 10 -4 10 -3
0 -8 -4 -11 -10z"/>
<path d="M13070 4288 c-56 -39 -89 -89 -101 -153 -21 -112 -26 -111 -37 11 -6
73 -9 79 -31 82 -15 3 -34 -6 -53 -25 -29 -27 -30 -31 -24 -90 3 -34 12 -90
21 -124 16 -61 16 -64 -6 -103 -44 -81 -105 -125 -177 -128 -61 -2 -82 20 -38
40 73 33 136 122 136 192 0 111 -92 170 -188 121 -107 -55 -159 -194 -121
-322 11 -34 9 -40 -12 -68 -29 -36 -39 -38 -39 -10 0 22 -62 88 -128 139 -35
27 -40 43 -28 102 8 46 -14 64 -61 48 -39 -14 -52 -39 -68 -133 -32 -181 -144
-378 -170 -299 -3 11 -9 74 -14 139 -10 147 -22 177 -73 181 -66 6 -139 -79
-169 -198 l-17 -65 -2 75 c-2 41 -3 89 -4 105 -2 64 -86 36 -107 -36 -10 -31
-10 -62 -1 -141 l12 -101 -36 -43 c-39 -48 -68 -56 -78 -21 -3 12 -6 81 -6
152 0 102 -3 135 -16 153 -18 27 -44 28 -74 4 -20 -16 -25 -38 -41 -154 -18
-138 -37 -198 -64 -198 -27 0 -37 41 -43 183 l-7 142 -28 3 c-20 2 -36 -5 -59
-28 l-31 -31 6 -124 7 -123 -35 -31 c-70 -61 -84 -65 -245 -57 -80 4 -148 10
-152 14 -4 4 -12 91 -19 194 -16 244 -3 299 84 339 86 39 140 19 152 -57 9
-64 24 -93 51 -100 89 -23 108 139 26 226 -85 88 -263 78 -363 -22 -81 -81
-102 -195 -78 -416 19 -176 22 -161 -37 -183 -69 -26 -97 -57 -97 -109 0 -69
54 -101 140 -85 36 6 97 57 119 97 9 16 14 16 89 -4 49 -13 113 -21 165 -22
95 0 130 12 191 71 l36 34 38 -25 c65 -45 117 -30 156 45 l20 40 25 -30 c13
-16 38 -32 53 -36 45 -10 111 13 148 50 l34 34 24 -25 c27 -27 37 -29 68 -13
33 18 37 28 37 109 1 123 40 263 69 245 5 -3 12 -38 16 -77 11 -127 24 -176
52 -198 85 -67 241 56 295 233 l20 68 27 -16 c34 -22 82 -76 75 -87 -3 -4 -17
-8 -31 -8 -36 0 -83 -31 -90 -59 -21 -82 117 -107 197 -35 21 19 43 34 49 34
7 0 34 23 61 50 l49 51 32 -16 c46 -24 140 -21 195 6 25 11 69 46 99 75 l54
55 21 -21 c22 -22 69 -27 88 -8 8 8 12 49 12 121 0 108 22 241 42 253 16 10
24 -12 37 -103 14 -98 36 -159 62 -173 69 -37 164 22 224 139 25 49 26 84 4
120 -25 41 -39 32 -79 -53 -15 -34 -35 -70 -44 -81 -16 -20 -16 -20 -35 2 -13
15 -23 57 -35 144 -9 67 -23 133 -31 146 -20 29 -53 29 -95 1z m-419 -296 c7
-19 4 -33 -15 -66 -24 -41 -63 -83 -70 -75 -4 4 -9 69 -7 107 1 30 45 74 66
66 9 -4 21 -18 26 -32z"/>
<path d="M12901 3436 c-49 -28 -65 -92 -31 -126 63 -63 182 31 139 109 -17 31
-70 39 -108 17z"/>
<path d="M13279 3341 c-24 -15 -54 -39 -66 -52 -52 -57 -81 -175 -65 -261 8
-41 6 -52 -14 -86 -57 -95 -89 -53 -104 134 -5 61 -12 118 -16 127 -10 27 -44
31 -73 10 -38 -29 -47 -86 -33 -199 8 -67 9 -101 1 -121 -15 -39 -57 -93 -73
-93 -19 0 -24 25 -41 175 -12 113 -17 132 -36 148 -27 22 -57 17 -111 -19 -46
-29 -76 -85 -92 -173 l-13 -66 -7 80 c-4 44 -8 91 -9 105 -3 37 -38 38 -79 1
-32 -28 -33 -32 -33 -101 0 -69 -1 -72 -30 -87 -27 -15 -30 -14 -40 2 -24 43
-79 95 -110 105 -83 28 -191 -22 -238 -108 -31 -56 -38 -114 -24 -194 8 -44 6
-48 -30 -86 -21 -22 -51 -44 -66 -47 -58 -15 -108 54 -130 179 l-10 61 59 60
c82 83 107 138 108 240 1 98 -21 155 -71 187 -31 18 -39 19 -73 9 -90 -27
-146 -147 -157 -339 l-6 -112 -84 -26 c-46 -15 -86 -24 -89 -22 -2 3 -9 41
-14 84 -10 84 -30 167 -48 201 -36 67 -120 82 -210 37 -65 -32 -107 -80 -126
-144 -32 -107 28 -138 79 -41 17 34 90 101 109 101 7 0 18 -6 24 -12 19 -23
42 -135 42 -201 l0 -65 -51 -17 c-61 -21 -79 -53 -53 -93 15 -22 20 -24 66
-18 l49 7 -1 -98 c-2 -194 -3 -192 25 -205 19 -8 31 -8 51 0 42 20 54 66 54
216 l0 134 88 27 c48 15 91 28 96 28 6 1 13 -18 17 -43 18 -111 71 -203 134
-231 89 -41 194 -16 256 60 l31 40 37 -20 c45 -24 113 -24 167 0 51 23 101 95
109 160 4 25 8 50 9 55 1 4 19 14 39 21 44 15 52 7 63 -64 13 -81 69 -116 114
-71 17 17 20 33 20 99 0 122 27 241 55 241 13 0 25 -43 25 -93 0 -90 60 -187
116 -187 54 0 126 51 162 116 9 16 12 16 37 -4 52 -41 127 -17 179 55 22 31
35 41 46 36 8 -4 40 -9 71 -11 54 -3 58 -2 93 34 50 52 46 22 -9 -59 -121
-180 -147 -300 -84 -388 17 -24 27 -29 64 -29 58 0 89 15 119 59 52 75 60 114
61 287 l0 162 72 107 72 106 -16 35 c-9 19 -20 34 -23 34 -3 0 -33 -36 -66
-81 l-59 -81 -21 141 c-11 77 -26 147 -34 155 -15 19 -51 21 -68 4 -9 -9 -15
-9 -24 0 -19 19 -40 14 -89 -17z m96 -191 c6 -106 5 -118 -15 -148 -57 -92
-126 40 -89 173 12 43 75 113 89 99 5 -5 12 -61 15 -124z m-1565 11 c14 -27
12 -118 -4 -164 -15 -41 -62 -107 -77 -107 -19 0 -7 146 21 249 12 46 41 56
60 22z m361 -323 c10 -38 40 -79 65 -88 20 -8 22 -14 17 -47 -11 -78 -63 -117
-108 -82 -38 30 -55 71 -55 131 0 89 62 156 81 86z m1262 -130 c-5 -96 -16
-138 -44 -164 -29 -26 -41 -4 -35 62 4 51 57 184 73 184 5 0 7 -37 6 -82z"/>
<path d="M10898 2592 c-53 -15 -106 -36 -117 -46 -28 -26 -27 -62 3 -81 25
-17 23 -17 221 39 47 13 71 49 61 89 -8 35 -38 35 -168 -1z"/>
<path d="M14676 5227 c3 -10 9 -15 12 -12 3 3 0 11 -7 18 -10 9 -11 8 -5 -6z"/>
<path d="M14730 5120 c0 -5 5 -10 11 -10 5 0 7 5 4 10 -3 6 -8 10 -11 10 -2 0
-4 -4 -4 -10z"/>
<path d="M14205 5040 c-8 -12 2 -30 17 -30 7 0 7 4 -1 13 -6 8 -8 17 -4 20 3
4 4 7 0 7 -3 0 -9 -4 -12 -10z"/>
<path d="M14060 2595 c0 -15 -2 -17 -9 -6 -5 8 -11 9 -15 3 -6 -11 31 -28 41
-19 3 3 0 14 -6 24 -10 17 -10 17 -11 -2z"/>
<path d="M13644 2206 c-14 -15 -25 -46 -16 -46 7 0 34 51 29 56 -1 1 -7 -3
-13 -10z"/>
<path d="M13659 2183 c-13 -16 -12 -17 4 -4 16 13 21 21 13 21 -2 0 -10 -8
-17 -17z"/>
<path d="M13736 2134 c-9 -22 -8 -23 13 -21 16 1 18 5 10 19 -12 22 -15 22
-23 2z"/>
</g>
</svg>
